# Tiled2Unity generated file. Do not modify by hand.
# Wavefront file for 'PixelGameTestMap_mesh_0034.obj'

# Vertices (Count = 16)
v -6 -60 0
v -7 -60 0
v -7 -59 0
v -6 -59 0
v -13 -61 0
v -14 -61 0
v -14 -60 0
v -13 -60 0
v -9 -67 0
v -10 -67 0
v -10 -66 0
v -9 -66 0
v -3 -69 0
v -4 -69 0
v -4 -68 0
v -3 -68 0

# Texture cooridinates (Count = 4)
vt 0.4 0.8
vt 0.5 0.8
vt 0.5 0.9
vt 0.4 0.9

# Normal
vn 0 0 -1

# Mesh description
g PixelGameTestMap_mesh_0034

# Faces
f 1/1/1 2/2/1 3/3/1 4/4/1
f 5/1/1 6/2/1 7/3/1 8/4/1
f 9/1/1 10/2/1 11/3/1 12/4/1
f 13/1/1 14/2/1 15/3/1 16/4/1

