# Tiled2Unity generated file. Do not modify by hand.
# Wavefront file for 'PixelGameTestMap_mesh_0013.obj'

# Vertices (Count = 224)
v -17 -3 0
v -18 -3 0
v -18 -2 0
v -17 -2 0
v -18 -3 0
v -19 -3 0
v -19 -2 0
v -18 -2 0
v -19 -3 0
v -20 -3 0
v -20 -2 0
v -19 -2 0
v -20 -3 0
v -21 -3 0
v -21 -2 0
v -20 -2 0
v -21 -3 0
v -22 -3 0
v -22 -2 0
v -21 -2 0
v -22 -3 0
v -23 -3 0
v -23 -2 0
v -22 -2 0
v -17 -4 0
v -18 -4 0
v -18 -3 0
v -17 -3 0
v -18 -4 0
v -19 -4 0
v -19 -3 0
v -18 -3 0
v -19 -4 0
v -20 -4 0
v -20 -3 0
v -19 -3 0
v -20 -4 0
v -21 -4 0
v -21 -3 0
v -20 -3 0
v -21 -4 0
v -22 -4 0
v -22 -3 0
v -21 -3 0
v -22 -4 0
v -23 -4 0
v -23 -3 0
v -22 -3 0
v -1 -5 0
v -2 -5 0
v -2 -4 0
v -1 -4 0
v -2 -5 0
v -3 -5 0
v -3 -4 0
v -2 -4 0
v -13 -5 0
v -14 -5 0
v -14 -4 0
v -13 -4 0
v -14 -5 0
v -15 -5 0
v -15 -4 0
v -14 -4 0
v -1 -6 0
v -2 -6 0
v -2 -5 0
v -1 -5 0
v -2 -6 0
v -3 -6 0
v -3 -5 0
v -2 -5 0
v -13 -6 0
v -14 -6 0
v -14 -5 0
v -13 -5 0
v -14 -6 0
v -15 -6 0
v -15 -5 0
v -14 -5 0
v -7 -7 0
v -8 -7 0
v -8 -6 0
v -7 -6 0
v -8 -7 0
v -9 -7 0
v -9 -6 0
v -8 -6 0
v -3 -8 0
v -4 -8 0
v -4 -7 0
v -3 -7 0
v -4 -8 0
v -5 -8 0
v -5 -7 0
v -4 -7 0
v -7 -8 0
v -8 -8 0
v -8 -7 0
v -7 -7 0
v -8 -8 0
v -9 -8 0
v -9 -7 0
v -8 -7 0
v -3 -9 0
v -4 -9 0
v -4 -8 0
v -3 -8 0
v -4 -9 0
v -5 -9 0
v -5 -8 0
v -4 -8 0
v -7 -13 0
v -8 -13 0
v -8 -12 0
v -7 -12 0
v -8 -13 0
v -9 -13 0
v -9 -12 0
v -8 -12 0
v -9 -13 0
v -10 -13 0
v -10 -12 0
v -9 -12 0
v -10 -13 0
v -11 -13 0
v -11 -12 0
v -10 -12 0
v -7 -14 0
v -8 -14 0
v -8 -13 0
v -7 -13 0
v -8 -14 0
v -9 -14 0
v -9 -13 0
v -8 -13 0
v -9 -14 0
v -10 -14 0
v -10 -13 0
v -9 -13 0
v -10 -14 0
v -11 -14 0
v -11 -13 0
v -10 -13 0
v -31 -21 0
v -32 -21 0
v -32 -20 0
v -31 -20 0
v -32 -21 0
v -33 -21 0
v -33 -20 0
v -32 -20 0
v -31 -22 0
v -32 -22 0
v -32 -21 0
v -31 -21 0
v -32 -22 0
v -33 -22 0
v -33 -21 0
v -32 -21 0
v -49 -29 0
v -50 -29 0
v -50 -28 0
v -49 -28 0
v -50 -29 0
v -51 -29 0
v -51 -28 0
v -50 -28 0
v -51 -29 0
v -52 -29 0
v -52 -28 0
v -51 -28 0
v -49 -30 0
v -50 -30 0
v -50 -29 0
v -49 -29 0
v -50 -30 0
v -51 -30 0
v -51 -29 0
v -50 -29 0
v -51 -30 0
v -52 -30 0
v -52 -29 0
v -51 -29 0
v -49 -31 0
v -50 -31 0
v -50 -30 0
v -49 -30 0
v -50 -31 0
v -51 -31 0
v -51 -30 0
v -50 -30 0
v -51 -31 0
v -52 -31 0
v -52 -30 0
v -51 -30 0
v -49 -32 0
v -50 -32 0
v -50 -31 0
v -49 -31 0
v -50 -32 0
v -51 -32 0
v -51 -31 0
v -50 -31 0
v -51 -32 0
v -52 -32 0
v -52 -31 0
v -51 -31 0
v -59 -38 0
v -60 -38 0
v -60 -37 0
v -59 -37 0
v -60 -38 0
v -61 -38 0
v -61 -37 0
v -60 -37 0
v -59 -39 0
v -60 -39 0
v -60 -38 0
v -59 -38 0
v -60 -39 0
v -61 -39 0
v -61 -38 0
v -60 -38 0

# Texture cooridinates (Count = 17)
vt 0.3 0.7
vt 0.4 0.7
vt 0.4 0.8
vt 0.3 0.8
vt 0.5 0.7
vt 0.5 0.8
vt 0.3 0.6
vt 0.4 0.6
vt 0.5 0.6
vt 0.2 0
vt 0.3 0
vt 0.3 0.1
vt 0.2 0.1
vt 0.4 0
vt 0.4 0.1
vt 0.5 0
vt 0.5 0.1

# Normal
vn 0 0 -1

# Mesh description
g PixelGameTestMap_mesh_0013

# Faces
f 1/1/1 2/2/1 3/3/1 4/4/1
f 5/2/1 6/5/1 7/6/1 8/3/1
f 9/1/1 10/2/1 11/3/1 12/4/1
f 13/2/1 14/5/1 15/6/1 16/3/1
f 17/1/1 18/2/1 19/3/1 20/4/1
f 21/2/1 22/5/1 23/6/1 24/3/1
f 25/7/1 26/8/1 27/2/1 28/1/1
f 29/8/1 30/9/1 31/5/1 32/2/1
f 33/7/1 34/8/1 35/2/1 36/1/1
f 37/8/1 38/9/1 39/5/1 40/2/1
f 41/7/1 42/8/1 43/2/1 44/1/1
f 45/8/1 46/9/1 47/5/1 48/2/1
f 49/1/1 50/2/1 51/3/1 52/4/1
f 53/2/1 54/5/1 55/6/1 56/3/1
f 57/1/1 58/2/1 59/3/1 60/4/1
f 61/2/1 62/5/1 63/6/1 64/3/1
f 65/7/1 66/8/1 67/2/1 68/1/1
f 69/8/1 70/9/1 71/5/1 72/2/1
f 73/7/1 74/8/1 75/2/1 76/1/1
f 77/8/1 78/9/1 79/5/1 80/2/1
f 81/1/1 82/2/1 83/3/1 84/4/1
f 85/2/1 86/5/1 87/6/1 88/3/1
f 89/1/1 90/2/1 91/3/1 92/4/1
f 93/2/1 94/5/1 95/6/1 96/3/1
f 97/7/1 98/8/1 99/2/1 100/1/1
f 101/8/1 102/9/1 103/5/1 104/2/1
f 105/7/1 106/8/1 107/2/1 108/1/1
f 109/8/1 110/9/1 111/5/1 112/2/1
f 113/1/1 114/2/1 115/3/1 116/4/1
f 117/2/1 118/5/1 119/6/1 120/3/1
f 121/1/1 122/2/1 123/3/1 124/4/1
f 125/2/1 126/5/1 127/6/1 128/3/1
f 129/7/1 130/8/1 131/2/1 132/1/1
f 133/8/1 134/9/1 135/5/1 136/2/1
f 137/7/1 138/8/1 139/2/1 140/1/1
f 141/8/1 142/9/1 143/5/1 144/2/1
f 145/1/1 146/2/1 147/3/1 148/4/1
f 149/2/1 150/5/1 151/6/1 152/3/1
f 153/7/1 154/8/1 155/2/1 156/1/1
f 157/8/1 158/9/1 159/5/1 160/2/1
f 161/10/1 162/11/1 163/12/1 164/13/1
f 165/11/1 166/14/1 167/15/1 168/12/1
f 169/14/1 170/16/1 171/17/1 172/15/1
f 173/10/1 174/11/1 175/12/1 176/13/1
f 177/11/1 178/14/1 179/15/1 180/12/1
f 181/14/1 182/16/1 183/17/1 184/15/1
f 185/10/1 186/11/1 187/12/1 188/13/1
f 189/11/1 190/14/1 191/15/1 192/12/1
f 193/14/1 194/16/1 195/17/1 196/15/1
f 197/10/1 198/11/1 199/12/1 200/13/1
f 201/11/1 202/14/1 203/15/1 204/12/1
f 205/14/1 206/16/1 207/17/1 208/15/1
f 209/1/1 210/2/1 211/3/1 212/4/1
f 213/2/1 214/5/1 215/6/1 216/3/1
f 217/7/1 218/8/1 219/2/1 220/1/1
f 221/8/1 222/9/1 223/5/1 224/2/1

