# Tiled2Unity generated file. Do not modify by hand.
# Wavefront file for 'PixelGameTestMap_mesh_0016.obj'

# Vertices (Count = 424)
v -21 -13 0
v -22 -13 0
v -22 -12 0
v -21 -12 0
v -22 -13 0
v -23 -13 0
v -23 -12 0
v -22 -12 0
v -21 -14 0
v -22 -14 0
v -22 -13 0
v -21 -13 0
v -29 -45 0
v -30 -45 0
v -30 -44 0
v -29 -44 0
v -30 -45 0
v -31 -45 0
v -31 -44 0
v -30 -44 0
v -32 -45 0
v -33 -45 0
v -33 -44 0
v -32 -44 0
v -33 -45 0
v -34 -45 0
v -34 -44 0
v -33 -44 0
v -29 -46 0
v -30 -46 0
v -30 -45 0
v -29 -45 0
v -30 -46 0
v -31 -46 0
v -31 -45 0
v -30 -45 0
v -32 -46 0
v -33 -46 0
v -33 -45 0
v -32 -45 0
v -33 -46 0
v -34 -46 0
v -34 -45 0
v -33 -45 0
v -29 -47 0
v -30 -47 0
v -30 -46 0
v -29 -46 0
v -30 -47 0
v -31 -47 0
v -31 -46 0
v -30 -46 0
v -32 -47 0
v -33 -47 0
v -33 -46 0
v -32 -46 0
v -33 -47 0
v -34 -47 0
v -34 -46 0
v -33 -46 0
v -29 -48 0
v -30 -48 0
v -30 -47 0
v -29 -47 0
v -30 -48 0
v -31 -48 0
v -31 -47 0
v -30 -47 0
v -32 -48 0
v -33 -48 0
v -33 -47 0
v -32 -47 0
v -33 -48 0
v -34 -48 0
v -34 -47 0
v -33 -47 0
v -29 -49 0
v -30 -49 0
v -30 -48 0
v -29 -48 0
v -30 -49 0
v -31 -49 0
v -31 -48 0
v -30 -48 0
v -32 -49 0
v -33 -49 0
v -33 -48 0
v -32 -48 0
v -33 -49 0
v -34 -49 0
v -34 -48 0
v -33 -48 0
v -29 -50 0
v -30 -50 0
v -30 -49 0
v -29 -49 0
v -30 -50 0
v -31 -50 0
v -31 -49 0
v -30 -49 0
v -32 -50 0
v -33 -50 0
v -33 -49 0
v -32 -49 0
v -33 -50 0
v -34 -50 0
v -34 -49 0
v -33 -49 0
v -29 -51 0
v -30 -51 0
v -30 -50 0
v -29 -50 0
v -30 -51 0
v -31 -51 0
v -31 -50 0
v -30 -50 0
v -32 -51 0
v -33 -51 0
v -33 -50 0
v -32 -50 0
v -33 -51 0
v -34 -51 0
v -34 -50 0
v -33 -50 0
v -29 -52 0
v -30 -52 0
v -30 -51 0
v -29 -51 0
v -30 -52 0
v -31 -52 0
v -31 -51 0
v -30 -51 0
v -32 -52 0
v -33 -52 0
v -33 -51 0
v -32 -51 0
v -33 -52 0
v -34 -52 0
v -34 -51 0
v -33 -51 0
v -29 -53 0
v -30 -53 0
v -30 -52 0
v -29 -52 0
v -30 -53 0
v -31 -53 0
v -31 -52 0
v -30 -52 0
v -32 -53 0
v -33 -53 0
v -33 -52 0
v -32 -52 0
v -33 -53 0
v -34 -53 0
v -34 -52 0
v -33 -52 0
v -29 -54 0
v -30 -54 0
v -30 -53 0
v -29 -53 0
v -30 -54 0
v -31 -54 0
v -31 -53 0
v -30 -53 0
v -32 -54 0
v -33 -54 0
v -33 -53 0
v -32 -53 0
v -33 -54 0
v -34 -54 0
v -34 -53 0
v -33 -53 0
v -47 -54 0
v -48 -54 0
v -48 -53 0
v -47 -53 0
v -29 -55 0
v -30 -55 0
v -30 -54 0
v -29 -54 0
v -30 -55 0
v -31 -55 0
v -31 -54 0
v -30 -54 0
v -32 -55 0
v -33 -55 0
v -33 -54 0
v -32 -54 0
v -33 -55 0
v -34 -55 0
v -34 -54 0
v -33 -54 0
v -49 -55 0
v -50 -55 0
v -50 -54 0
v -49 -54 0
v -29 -56 0
v -30 -56 0
v -30 -55 0
v -29 -55 0
v -30 -56 0
v -31 -56 0
v -31 -55 0
v -30 -55 0
v -32 -56 0
v -33 -56 0
v -33 -55 0
v -32 -55 0
v -33 -56 0
v -34 -56 0
v -34 -55 0
v -33 -55 0
v -35 -56 0
v -36 -56 0
v -36 -55 0
v -35 -55 0
v -43 -56 0
v -44 -56 0
v -44 -55 0
v -43 -55 0
v -44 -56 0
v -45 -56 0
v -45 -55 0
v -44 -55 0
v -29 -57 0
v -30 -57 0
v -30 -56 0
v -29 -56 0
v -30 -57 0
v -31 -57 0
v -31 -56 0
v -30 -56 0
v -32 -57 0
v -33 -57 0
v -33 -56 0
v -32 -56 0
v -33 -57 0
v -34 -57 0
v -34 -56 0
v -33 -56 0
v -35 -57 0
v -36 -57 0
v -36 -56 0
v -35 -56 0
v -40 -57 0
v -41 -57 0
v -41 -56 0
v -40 -56 0
v -41 -57 0
v -42 -57 0
v -42 -56 0
v -41 -56 0
v -43 -57 0
v -44 -57 0
v -44 -56 0
v -43 -56 0
v -44 -57 0
v -45 -57 0
v -45 -56 0
v -44 -56 0
v -47 -57 0
v -48 -57 0
v -48 -56 0
v -47 -56 0
v -48 -57 0
v -49 -57 0
v -49 -56 0
v -48 -56 0
v -29 -58 0
v -30 -58 0
v -30 -57 0
v -29 -57 0
v -30 -58 0
v -31 -58 0
v -31 -57 0
v -30 -57 0
v -32 -58 0
v -33 -58 0
v -33 -57 0
v -32 -57 0
v -33 -58 0
v -34 -58 0
v -34 -57 0
v -33 -57 0
v -40 -58 0
v -41 -58 0
v -41 -57 0
v -40 -57 0
v -41 -58 0
v -42 -58 0
v -42 -57 0
v -41 -57 0
v -44 -58 0
v -45 -58 0
v -45 -57 0
v -44 -57 0
v -45 -58 0
v -46 -58 0
v -46 -57 0
v -45 -57 0
v -38 -59 0
v -39 -59 0
v -39 -58 0
v -38 -58 0
v -44 -59 0
v -45 -59 0
v -45 -58 0
v -44 -58 0
v -45 -59 0
v -46 -59 0
v -46 -58 0
v -45 -58 0
v -47 -59 0
v -48 -59 0
v -48 -58 0
v -47 -58 0
v -49 -59 0
v -50 -59 0
v -50 -58 0
v -49 -58 0
v -38 -60 0
v -39 -60 0
v -39 -59 0
v -38 -59 0
v -41 -60 0
v -42 -60 0
v -42 -59 0
v -41 -59 0
v -42 -60 0
v -43 -60 0
v -43 -59 0
v -42 -59 0
v -44 -60 0
v -45 -60 0
v -45 -59 0
v -44 -59 0
v -45 -60 0
v -46 -60 0
v -46 -59 0
v -45 -59 0
v -38 -61 0
v -39 -61 0
v -39 -60 0
v -38 -60 0
v -41 -61 0
v -42 -61 0
v -42 -60 0
v -41 -60 0
v -42 -61 0
v -43 -61 0
v -43 -60 0
v -42 -60 0
v -44 -61 0
v -45 -61 0
v -45 -60 0
v -44 -60 0
v -45 -61 0
v -46 -61 0
v -46 -60 0
v -45 -60 0
v -41 -62 0
v -42 -62 0
v -42 -61 0
v -41 -61 0
v -42 -62 0
v -43 -62 0
v -43 -61 0
v -42 -61 0
v -44 -62 0
v -45 -62 0
v -45 -61 0
v -44 -61 0
v -45 -62 0
v -46 -62 0
v -46 -61 0
v -45 -61 0
v -41 -63 0
v -42 -63 0
v -42 -62 0
v -41 -62 0
v -42 -63 0
v -43 -63 0
v -43 -62 0
v -42 -62 0
v -44 -63 0
v -45 -63 0
v -45 -62 0
v -44 -62 0
v -45 -63 0
v -46 -63 0
v -46 -62 0
v -45 -62 0
v -41 -64 0
v -42 -64 0
v -42 -63 0
v -41 -63 0
v -42 -64 0
v -43 -64 0
v -43 -63 0
v -42 -63 0
v -44 -64 0
v -45 -64 0
v -45 -63 0
v -44 -63 0
v -45 -64 0
v -46 -64 0
v -46 -63 0
v -45 -63 0
v -41 -65 0
v -42 -65 0
v -42 -64 0
v -41 -64 0
v -42 -65 0
v -43 -65 0
v -43 -64 0
v -42 -64 0
v -44 -65 0
v -45 -65 0
v -45 -64 0
v -44 -64 0
v -45 -65 0
v -46 -65 0
v -46 -64 0
v -45 -64 0

# Texture cooridinates (Count = 21)
vt 0.5 0.1
vt 0.6 0.1
vt 0.6 0.2
vt 0.5 0.2
vt 0.7 0.1
vt 0.7 0.2
vt 0.5 0
vt 0.6 0
vt 0.3 0.7
vt 0.4 0.7
vt 0.4 0.8
vt 0.3 0.8
vt 0.5 0.7
vt 0.5 0.8
vt 0.3 0.6
vt 0.4 0.6
vt 0.5 0.6
vt 0 0.8
vt 0.1 0.8
vt 0.1 0.9
vt 0 0.9

# Normal
vn 0 0 -1

# Mesh description
g PixelGameTestMap_mesh_0016

# Faces
f 1/1/1 2/2/1 3/3/1 4/4/1
f 5/2/1 6/5/1 7/6/1 8/3/1
f 9/7/1 10/8/1 11/2/1 12/1/1
f 13/9/1 14/10/1 15/11/1 16/12/1
f 17/10/1 18/13/1 19/14/1 20/11/1
f 21/9/1 22/10/1 23/11/1 24/12/1
f 25/10/1 26/13/1 27/14/1 28/11/1
f 29/15/1 30/16/1 31/10/1 32/9/1
f 33/16/1 34/17/1 35/13/1 36/10/1
f 37/15/1 38/16/1 39/10/1 40/9/1
f 41/16/1 42/17/1 43/13/1 44/10/1
f 45/9/1 46/10/1 47/11/1 48/12/1
f 49/10/1 50/13/1 51/14/1 52/11/1
f 53/9/1 54/10/1 55/11/1 56/12/1
f 57/10/1 58/13/1 59/14/1 60/11/1
f 61/15/1 62/16/1 63/10/1 64/9/1
f 65/16/1 66/17/1 67/13/1 68/10/1
f 69/15/1 70/16/1 71/10/1 72/9/1
f 73/16/1 74/17/1 75/13/1 76/10/1
f 77/9/1 78/10/1 79/11/1 80/12/1
f 81/10/1 82/13/1 83/14/1 84/11/1
f 85/9/1 86/10/1 87/11/1 88/12/1
f 89/10/1 90/13/1 91/14/1 92/11/1
f 93/15/1 94/16/1 95/10/1 96/9/1
f 97/16/1 98/17/1 99/13/1 100/10/1
f 101/15/1 102/16/1 103/10/1 104/9/1
f 105/16/1 106/17/1 107/13/1 108/10/1
f 109/9/1 110/10/1 111/11/1 112/12/1
f 113/10/1 114/13/1 115/14/1 116/11/1
f 117/9/1 118/10/1 119/11/1 120/12/1
f 121/10/1 122/13/1 123/14/1 124/11/1
f 125/15/1 126/16/1 127/10/1 128/9/1
f 129/16/1 130/17/1 131/13/1 132/10/1
f 133/15/1 134/16/1 135/10/1 136/9/1
f 137/16/1 138/17/1 139/13/1 140/10/1
f 141/9/1 142/10/1 143/11/1 144/12/1
f 145/10/1 146/13/1 147/14/1 148/11/1
f 149/9/1 150/10/1 151/11/1 152/12/1
f 153/10/1 154/13/1 155/14/1 156/11/1
f 157/15/1 158/16/1 159/10/1 160/9/1
f 161/16/1 162/17/1 163/13/1 164/10/1
f 165/15/1 166/16/1 167/10/1 168/9/1
f 169/16/1 170/17/1 171/13/1 172/10/1
f 173/18/1 174/19/1 175/20/1 176/21/1
f 177/9/1 178/10/1 179/11/1 180/12/1
f 181/10/1 182/13/1 183/14/1 184/11/1
f 185/9/1 186/10/1 187/11/1 188/12/1
f 189/10/1 190/13/1 191/14/1 192/11/1
f 193/18/1 194/19/1 195/20/1 196/21/1
f 197/15/1 198/16/1 199/10/1 200/9/1
f 201/16/1 202/17/1 203/13/1 204/10/1
f 205/15/1 206/16/1 207/10/1 208/9/1
f 209/16/1 210/17/1 211/13/1 212/10/1
f 213/18/1 214/19/1 215/20/1 216/21/1
f 217/9/1 218/10/1 219/11/1 220/12/1
f 221/10/1 222/13/1 223/14/1 224/11/1
f 225/9/1 226/10/1 227/11/1 228/12/1
f 229/10/1 230/13/1 231/14/1 232/11/1
f 233/9/1 234/10/1 235/11/1 236/12/1
f 237/10/1 238/13/1 239/14/1 240/11/1
f 241/18/1 242/19/1 243/20/1 244/21/1
f 245/9/1 246/10/1 247/11/1 248/12/1
f 249/10/1 250/13/1 251/14/1 252/11/1
f 253/15/1 254/16/1 255/10/1 256/9/1
f 257/16/1 258/17/1 259/13/1 260/10/1
f 261/18/1 262/19/1 263/20/1 264/21/1
f 265/18/1 266/19/1 267/20/1 268/21/1
f 269/15/1 270/16/1 271/10/1 272/9/1
f 273/16/1 274/17/1 275/13/1 276/10/1
f 277/15/1 278/16/1 279/10/1 280/9/1
f 281/16/1 282/17/1 283/13/1 284/10/1
f 285/15/1 286/16/1 287/10/1 288/9/1
f 289/16/1 290/17/1 291/13/1 292/10/1
f 293/9/1 294/10/1 295/11/1 296/12/1
f 297/10/1 298/13/1 299/14/1 300/11/1
f 301/18/1 302/19/1 303/20/1 304/21/1
f 305/15/1 306/16/1 307/10/1 308/9/1
f 309/16/1 310/17/1 311/13/1 312/10/1
f 313/18/1 314/19/1 315/20/1 316/21/1
f 317/18/1 318/19/1 319/20/1 320/21/1
f 321/18/1 322/19/1 323/20/1 324/21/1
f 325/9/1 326/10/1 327/11/1 328/12/1
f 329/10/1 330/13/1 331/14/1 332/11/1
f 333/9/1 334/10/1 335/11/1 336/12/1
f 337/10/1 338/13/1 339/14/1 340/11/1
f 341/18/1 342/19/1 343/20/1 344/21/1
f 345/15/1 346/16/1 347/10/1 348/9/1
f 349/16/1 350/17/1 351/13/1 352/10/1
f 353/15/1 354/16/1 355/10/1 356/9/1
f 357/16/1 358/17/1 359/13/1 360/10/1
f 361/9/1 362/10/1 363/11/1 364/12/1
f 365/10/1 366/13/1 367/14/1 368/11/1
f 369/9/1 370/10/1 371/11/1 372/12/1
f 373/10/1 374/13/1 375/14/1 376/11/1
f 377/15/1 378/16/1 379/10/1 380/9/1
f 381/16/1 382/17/1 383/13/1 384/10/1
f 385/15/1 386/16/1 387/10/1 388/9/1
f 389/16/1 390/17/1 391/13/1 392/10/1
f 393/9/1 394/10/1 395/11/1 396/12/1
f 397/10/1 398/13/1 399/14/1 400/11/1
f 401/9/1 402/10/1 403/11/1 404/12/1
f 405/10/1 406/13/1 407/14/1 408/11/1
f 409/15/1 410/16/1 411/10/1 412/9/1
f 413/16/1 414/17/1 415/13/1 416/10/1
f 417/15/1 418/16/1 419/10/1 420/9/1
f 421/16/1 422/17/1 423/13/1 424/10/1

