# Tiled2Unity generated file. Do not modify by hand.
# Wavefront file for 'PixelGameTestMap_mesh_0043.obj'

# Vertices (Count = 88)
v -36 -10 0
v -37 -10 0
v -37 -9 0
v -36 -9 0
v -36 -11 0
v -37 -11 0
v -37 -10 0
v -36 -10 0
v -37 -11 0
v -38 -11 0
v -38 -10 0
v -37 -10 0
v -36 -12 0
v -37 -12 0
v -37 -11 0
v -36 -11 0
v -37 -12 0
v -38 -12 0
v -38 -11 0
v -37 -11 0
v -36 -13 0
v -37 -13 0
v -37 -12 0
v -36 -12 0
v -30 -18 0
v -31 -18 0
v -31 -17 0
v -30 -17 0
v -31 -18 0
v -32 -18 0
v -32 -17 0
v -31 -17 0
v -32 -18 0
v -33 -18 0
v -33 -17 0
v -32 -17 0
v -33 -18 0
v -34 -18 0
v -34 -17 0
v -33 -17 0
v -34 -18 0
v -35 -18 0
v -35 -17 0
v -34 -17 0
v -33 -19 0
v -34 -19 0
v -34 -18 0
v -33 -18 0
v -34 -19 0
v -35 -19 0
v -35 -18 0
v -34 -18 0
v -18 -59 0
v -19 -59 0
v -19 -58 0
v -18 -58 0
v -19 -59 0
v -20 -59 0
v -20 -58 0
v -19 -58 0
v -20 -59 0
v -21 -59 0
v -21 -58 0
v -20 -58 0
v -18 -60 0
v -19 -60 0
v -19 -59 0
v -18 -59 0
v -19 -60 0
v -20 -60 0
v -20 -59 0
v -19 -59 0
v -20 -60 0
v -21 -60 0
v -21 -59 0
v -20 -59 0
v -18 -61 0
v -19 -61 0
v -19 -60 0
v -18 -60 0
v -19 -61 0
v -20 -61 0
v -20 -60 0
v -19 -60 0
v -20 -61 0
v -21 -61 0
v -21 -60 0
v -20 -60 0

# Texture cooridinates (Count = 6)
vt 0.4 0
vt 0.5 0
vt 0.5 0.1
vt 0.4 0.1
vt 0.3 0
vt 0.3 0.1

# Normal
vn 0 0 -1

# Mesh description
g PixelGameTestMap_mesh_0043

# Faces
f 1/1/1 2/2/1 3/3/1 4/4/1
f 5/1/1 6/2/1 7/3/1 8/4/1
f 9/1/1 10/2/1 11/3/1 12/4/1
f 13/1/1 14/2/1 15/3/1 16/4/1
f 17/1/1 18/2/1 19/3/1 20/4/1
f 21/1/1 22/2/1 23/3/1 24/4/1
f 25/1/1 26/2/1 27/3/1 28/4/1
f 29/1/1 30/2/1 31/3/1 32/4/1
f 33/1/1 34/2/1 35/3/1 36/4/1
f 37/1/1 38/2/1 39/3/1 40/4/1
f 41/1/1 42/2/1 43/3/1 44/4/1
f 45/1/1 46/2/1 47/3/1 48/4/1
f 49/1/1 50/2/1 51/3/1 52/4/1
f 53/5/1 54/1/1 55/4/1 56/6/1
f 57/5/1 58/1/1 59/4/1 60/6/1
f 61/1/1 62/2/1 63/3/1 64/4/1
f 65/5/1 66/1/1 67/4/1 68/6/1
f 69/5/1 70/1/1 71/4/1 72/6/1
f 73/1/1 74/2/1 75/3/1 76/4/1
f 77/5/1 78/1/1 79/4/1 80/6/1
f 81/5/1 82/1/1 83/4/1 84/6/1
f 85/1/1 86/2/1 87/3/1 88/4/1

