# Tiled2Unity generated file. Do not modify by hand.
# Wavefront file for 'PixelGameTestMap_mesh_0018.obj'

# Vertices (Count = 324)
v -22 -16 0
v -23 -16 0
v -23 -15 0
v -22 -15 0
v -32 -16 0
v -33 -16 0
v -33 -15 0
v -32 -15 0
v -33 -16 0
v -34 -16 0
v -34 -15 0
v -33 -15 0
v -22 -17 0
v -23 -17 0
v -23 -16 0
v -22 -16 0
v -23 -17 0
v -24 -17 0
v -24 -16 0
v -23 -16 0
v -25 -17 0
v -26 -17 0
v -26 -16 0
v -25 -16 0
v -26 -17 0
v -27 -17 0
v -27 -16 0
v -26 -16 0
v -27 -17 0
v -28 -17 0
v -28 -16 0
v -27 -16 0
v -28 -17 0
v -29 -17 0
v -29 -16 0
v -28 -16 0
v -29 -17 0
v -30 -17 0
v -30 -16 0
v -29 -16 0
v -30 -17 0
v -31 -17 0
v -31 -16 0
v -30 -16 0
v -31 -17 0
v -32 -17 0
v -32 -16 0
v -31 -16 0
v -32 -17 0
v -33 -17 0
v -33 -16 0
v -32 -16 0
v -21 -18 0
v -22 -18 0
v -22 -17 0
v -21 -17 0
v -22 -18 0
v -23 -18 0
v -23 -17 0
v -22 -17 0
v -23 -18 0
v -24 -18 0
v -24 -17 0
v -23 -17 0
v -25 -18 0
v -26 -18 0
v -26 -17 0
v -25 -17 0
v -26 -18 0
v -27 -18 0
v -27 -17 0
v -26 -17 0
v -27 -18 0
v -28 -18 0
v -28 -17 0
v -27 -17 0
v -28 -18 0
v -29 -18 0
v -29 -17 0
v -28 -17 0
v -29 -18 0
v -30 -18 0
v -30 -17 0
v -29 -17 0
v -30 -18 0
v -31 -18 0
v -31 -17 0
v -30 -17 0
v -31 -18 0
v -32 -18 0
v -32 -17 0
v -31 -17 0
v -32 -18 0
v -33 -18 0
v -33 -17 0
v -32 -17 0
v -21 -19 0
v -22 -19 0
v -22 -18 0
v -21 -18 0
v -22 -19 0
v -23 -19 0
v -23 -18 0
v -22 -18 0
v -26 -19 0
v -27 -19 0
v -27 -18 0
v -26 -18 0
v -27 -19 0
v -28 -19 0
v -28 -18 0
v -27 -18 0
v -21 -20 0
v -22 -20 0
v -22 -19 0
v -21 -19 0
v -22 -20 0
v -23 -20 0
v -23 -19 0
v -22 -19 0
v -22 -21 0
v -23 -21 0
v -23 -20 0
v -22 -20 0
v -49 -22 0
v -50 -22 0
v -50 -21 0
v -49 -21 0
v -9 -23 0
v -10 -23 0
v -10 -22 0
v -9 -22 0
v -27 -39 0
v -28 -39 0
v -28 -38 0
v -27 -38 0
v -28 -39 0
v -29 -39 0
v -29 -38 0
v -28 -38 0
v -29 -39 0
v -30 -39 0
v -30 -38 0
v -29 -38 0
v -30 -39 0
v -31 -39 0
v -31 -38 0
v -30 -38 0
v -42 -48 0
v -43 -48 0
v -43 -47 0
v -42 -47 0
v -43 -48 0
v -44 -48 0
v -44 -47 0
v -43 -47 0
v -42 -49 0
v -43 -49 0
v -43 -48 0
v -42 -48 0
v -43 -49 0
v -44 -49 0
v -44 -48 0
v -43 -48 0
v -35 -50 0
v -36 -50 0
v -36 -49 0
v -35 -49 0
v -36 -50 0
v -37 -50 0
v -37 -49 0
v -36 -49 0
v -38 -50 0
v -39 -50 0
v -39 -49 0
v -38 -49 0
v -39 -50 0
v -40 -50 0
v -40 -49 0
v -39 -49 0
v -41 -50 0
v -42 -50 0
v -42 -49 0
v -41 -49 0
v -42 -50 0
v -43 -50 0
v -43 -49 0
v -42 -49 0
v -44 -50 0
v -45 -50 0
v -45 -49 0
v -44 -49 0
v -45 -50 0
v -46 -50 0
v -46 -49 0
v -45 -49 0
v -35 -51 0
v -36 -51 0
v -36 -50 0
v -35 -50 0
v -36 -51 0
v -37 -51 0
v -37 -50 0
v -36 -50 0
v -38 -51 0
v -39 -51 0
v -39 -50 0
v -38 -50 0
v -39 -51 0
v -40 -51 0
v -40 -50 0
v -39 -50 0
v -41 -51 0
v -42 -51 0
v -42 -50 0
v -41 -50 0
v -42 -51 0
v -43 -51 0
v -43 -50 0
v -42 -50 0
v -44 -51 0
v -45 -51 0
v -45 -50 0
v -44 -50 0
v -45 -51 0
v -46 -51 0
v -46 -50 0
v -45 -50 0
v -34 -52 0
v -35 -52 0
v -35 -51 0
v -34 -51 0
v -35 -52 0
v -36 -52 0
v -36 -51 0
v -35 -51 0
v -37 -52 0
v -38 -52 0
v -38 -51 0
v -37 -51 0
v -38 -52 0
v -39 -52 0
v -39 -51 0
v -38 -51 0
v -39 -52 0
v -40 -52 0
v -40 -51 0
v -39 -51 0
v -40 -52 0
v -41 -52 0
v -41 -51 0
v -40 -51 0
v -41 -52 0
v -42 -52 0
v -42 -51 0
v -41 -51 0
v -42 -52 0
v -43 -52 0
v -43 -51 0
v -42 -51 0
v -43 -52 0
v -44 -52 0
v -44 -51 0
v -43 -51 0
v -44 -52 0
v -45 -52 0
v -45 -51 0
v -44 -51 0
v -34 -53 0
v -35 -53 0
v -35 -52 0
v -34 -52 0
v -35 -53 0
v -36 -53 0
v -36 -52 0
v -35 -52 0
v -37 -53 0
v -38 -53 0
v -38 -52 0
v -37 -52 0
v -38 -53 0
v -39 -53 0
v -39 -52 0
v -38 -52 0
v -39 -53 0
v -40 -53 0
v -40 -52 0
v -39 -52 0
v -40 -53 0
v -41 -53 0
v -41 -52 0
v -40 -52 0
v -41 -53 0
v -42 -53 0
v -42 -52 0
v -41 -52 0
v -42 -53 0
v -43 -53 0
v -43 -52 0
v -42 -52 0
v -43 -53 0
v -44 -53 0
v -44 -52 0
v -43 -52 0
v -44 -53 0
v -45 -53 0
v -45 -52 0
v -44 -52 0
v -44 -54 0
v -45 -54 0
v -45 -53 0
v -44 -53 0
v -45 -54 0
v -46 -54 0
v -46 -53 0
v -45 -53 0
v -44 -55 0
v -45 -55 0
v -45 -54 0
v -44 -54 0
v -45 -55 0
v -46 -55 0
v -46 -54 0
v -45 -54 0

# Texture cooridinates (Count = 15)
vt 0.1 0
vt 0.2 0
vt 0.2 0.1
vt 0.1 0.1
vt 0 0
vt 0 0.1
vt 0.3 0.7
vt 0.4 0.7
vt 0.4 0.8
vt 0.3 0.8
vt 0.5 0.7
vt 0.5 0.8
vt 0.3 0.6
vt 0.4 0.6
vt 0.5 0.6

# Normal
vn 0 0 -1

# Mesh description
g PixelGameTestMap_mesh_0018

# Faces
f 1/1/1 2/2/1 3/3/1 4/4/1
f 5/1/1 6/2/1 7/3/1 8/4/1
f 9/1/1 10/2/1 11/3/1 12/4/1
f 13/1/1 14/2/1 15/3/1 16/4/1
f 17/1/1 18/2/1 19/3/1 20/4/1
f 21/1/1 22/2/1 23/3/1 24/4/1
f 25/1/1 26/2/1 27/3/1 28/4/1
f 29/1/1 30/2/1 31/3/1 32/4/1
f 33/1/1 34/2/1 35/3/1 36/4/1
f 37/1/1 38/2/1 39/3/1 40/4/1
f 41/1/1 42/2/1 43/3/1 44/4/1
f 45/1/1 46/2/1 47/3/1 48/4/1
f 49/1/1 50/2/1 51/3/1 52/4/1
f 53/1/1 54/2/1 55/3/1 56/4/1
f 57/1/1 58/2/1 59/3/1 60/4/1
f 61/1/1 62/2/1 63/3/1 64/4/1
f 65/1/1 66/2/1 67/3/1 68/4/1
f 69/1/1 70/2/1 71/3/1 72/4/1
f 73/1/1 74/2/1 75/3/1 76/4/1
f 77/1/1 78/2/1 79/3/1 80/4/1
f 81/1/1 82/2/1 83/3/1 84/4/1
f 85/1/1 86/2/1 87/3/1 88/4/1
f 89/1/1 90/2/1 91/3/1 92/4/1
f 93/1/1 94/2/1 95/3/1 96/4/1
f 97/1/1 98/2/1 99/3/1 100/4/1
f 101/1/1 102/2/1 103/3/1 104/4/1
f 105/1/1 106/2/1 107/3/1 108/4/1
f 109/1/1 110/2/1 111/3/1 112/4/1
f 113/1/1 114/2/1 115/3/1 116/4/1
f 117/1/1 118/2/1 119/3/1 120/4/1
f 121/1/1 122/2/1 123/3/1 124/4/1
f 125/5/1 126/1/1 127/4/1 128/6/1
f 129/5/1 130/1/1 131/4/1 132/6/1
f 133/1/1 134/2/1 135/3/1 136/4/1
f 137/1/1 138/2/1 139/3/1 140/4/1
f 141/1/1 142/2/1 143/3/1 144/4/1
f 145/1/1 146/2/1 147/3/1 148/4/1
f 149/7/1 150/8/1 151/9/1 152/10/1
f 153/8/1 154/11/1 155/12/1 156/9/1
f 157/13/1 158/14/1 159/8/1 160/7/1
f 161/14/1 162/15/1 163/11/1 164/8/1
f 165/7/1 166/8/1 167/9/1 168/10/1
f 169/8/1 170/11/1 171/12/1 172/9/1
f 173/7/1 174/8/1 175/9/1 176/10/1
f 177/8/1 178/11/1 179/12/1 180/9/1
f 181/7/1 182/8/1 183/9/1 184/10/1
f 185/8/1 186/11/1 187/12/1 188/9/1
f 189/7/1 190/8/1 191/9/1 192/10/1
f 193/8/1 194/11/1 195/12/1 196/9/1
f 197/13/1 198/14/1 199/8/1 200/7/1
f 201/14/1 202/15/1 203/11/1 204/8/1
f 205/13/1 206/14/1 207/8/1 208/7/1
f 209/14/1 210/15/1 211/11/1 212/8/1
f 213/13/1 214/14/1 215/8/1 216/7/1
f 217/14/1 218/15/1 219/11/1 220/8/1
f 221/13/1 222/14/1 223/8/1 224/7/1
f 225/14/1 226/15/1 227/11/1 228/8/1
f 229/7/1 230/8/1 231/9/1 232/10/1
f 233/8/1 234/11/1 235/12/1 236/9/1
f 237/7/1 238/8/1 239/9/1 240/10/1
f 241/8/1 242/11/1 243/12/1 244/9/1
f 245/7/1 246/8/1 247/9/1 248/10/1
f 249/8/1 250/11/1 251/12/1 252/9/1
f 253/7/1 254/8/1 255/9/1 256/10/1
f 257/8/1 258/11/1 259/12/1 260/9/1
f 261/7/1 262/8/1 263/9/1 264/10/1
f 265/8/1 266/11/1 267/12/1 268/9/1
f 269/13/1 270/14/1 271/8/1 272/7/1
f 273/14/1 274/15/1 275/11/1 276/8/1
f 277/13/1 278/14/1 279/8/1 280/7/1
f 281/14/1 282/15/1 283/11/1 284/8/1
f 285/13/1 286/14/1 287/8/1 288/7/1
f 289/14/1 290/15/1 291/11/1 292/8/1
f 293/13/1 294/14/1 295/8/1 296/7/1
f 297/14/1 298/15/1 299/11/1 300/8/1
f 301/13/1 302/14/1 303/8/1 304/7/1
f 305/14/1 306/15/1 307/11/1 308/8/1
f 309/7/1 310/8/1 311/9/1 312/10/1
f 313/8/1 314/11/1 315/12/1 316/9/1
f 317/13/1 318/14/1 319/8/1 320/7/1
f 321/14/1 322/15/1 323/11/1 324/8/1

