# Tiled2Unity generated file. Do not modify by hand.
# Wavefront file for 'PixelGameTestMap_mesh_0031.obj'

# Vertices (Count = 164)
v -28 -17 0
v -29 -17 0
v -29 -16 0
v -28 -16 0
v -29 -17 0
v -30 -17 0
v -30 -16 0
v -29 -16 0
v -30 -17 0
v -31 -17 0
v -31 -16 0
v -30 -16 0
v -31 -17 0
v -32 -17 0
v -32 -16 0
v -31 -16 0
v -32 -17 0
v -33 -17 0
v -33 -16 0
v -32 -16 0
v -35 -17 0
v -36 -17 0
v -36 -16 0
v -35 -16 0
v -36 -17 0
v -37 -17 0
v -37 -16 0
v -36 -16 0
v -37 -17 0
v -38 -17 0
v -38 -16 0
v -37 -16 0
v -38 -17 0
v -39 -17 0
v -39 -16 0
v -38 -16 0
v -39 -17 0
v -40 -17 0
v -40 -16 0
v -39 -16 0
v -40 -17 0
v -41 -17 0
v -41 -16 0
v -40 -16 0
v -41 -17 0
v -42 -17 0
v -42 -16 0
v -41 -16 0
v -28 -18 0
v -29 -18 0
v -29 -17 0
v -28 -17 0
v -29 -18 0
v -30 -18 0
v -30 -17 0
v -29 -17 0
v -30 -18 0
v -31 -18 0
v -31 -17 0
v -30 -17 0
v -38 -18 0
v -39 -18 0
v -39 -17 0
v -38 -17 0
v -39 -18 0
v -40 -18 0
v -40 -17 0
v -39 -17 0
v -40 -18 0
v -41 -18 0
v -41 -17 0
v -40 -17 0
v -41 -18 0
v -42 -18 0
v -42 -17 0
v -41 -17 0
v -42 -18 0
v -43 -18 0
v -43 -17 0
v -42 -17 0
v -30 -19 0
v -31 -19 0
v -31 -18 0
v -30 -18 0
v -38 -19 0
v -39 -19 0
v -39 -18 0
v -38 -18 0
v -39 -19 0
v -40 -19 0
v -40 -18 0
v -39 -18 0
v -40 -19 0
v -41 -19 0
v -41 -18 0
v -40 -18 0
v -42 -19 0
v -43 -19 0
v -43 -18 0
v -42 -18 0
v -44 -19 0
v -45 -19 0
v -45 -18 0
v -44 -18 0
v -42 -20 0
v -43 -20 0
v -43 -19 0
v -42 -19 0
v -43 -20 0
v -44 -20 0
v -44 -19 0
v -43 -19 0
v -44 -20 0
v -45 -20 0
v -45 -19 0
v -44 -19 0
v -42 -21 0
v -43 -21 0
v -43 -20 0
v -42 -20 0
v -48 -22 0
v -49 -22 0
v -49 -21 0
v -48 -21 0
v -49 -22 0
v -50 -22 0
v -50 -21 0
v -49 -21 0
v -8 -23 0
v -9 -23 0
v -9 -22 0
v -8 -22 0
v -9 -23 0
v -10 -23 0
v -10 -22 0
v -9 -22 0
v -8 -24 0
v -9 -24 0
v -9 -23 0
v -8 -23 0
v -9 -24 0
v -10 -24 0
v -10 -23 0
v -9 -23 0
v -33 -30 0
v -34 -30 0
v -34 -29 0
v -33 -29 0
v -31 -32 0
v -32 -32 0
v -32 -31 0
v -31 -31 0
v -34 -33 0
v -35 -33 0
v -35 -32 0
v -34 -32 0
v -36 -34 0
v -37 -34 0
v -37 -33 0
v -36 -33 0
v -32 -35 0
v -33 -35 0
v -33 -34 0
v -32 -34 0

# Texture cooridinates (Count = 10)
vt 0.1 0
vt 0.2 0
vt 0.2 0.1
vt 0.1 0.1
vt 0 0.4
vt 0.1 0.4
vt 0.1 0.5
vt 0 0.5
vt 0 0
vt 0 0.1

# Normal
vn 0 0 -1

# Mesh description
g PixelGameTestMap_mesh_0031

# Faces
f 1/1/1 2/2/1 3/3/1 4/4/1
f 5/1/1 6/2/1 7/3/1 8/4/1
f 9/1/1 10/2/1 11/3/1 12/4/1
f 13/1/1 14/2/1 15/3/1 16/4/1
f 17/1/1 18/2/1 19/3/1 20/4/1
f 21/5/1 22/6/1 23/7/1 24/8/1
f 25/5/1 26/6/1 27/7/1 28/8/1
f 29/5/1 30/6/1 31/7/1 32/8/1
f 33/5/1 34/6/1 35/7/1 36/8/1
f 37/5/1 38/6/1 39/7/1 40/8/1
f 41/5/1 42/6/1 43/7/1 44/8/1
f 45/5/1 46/6/1 47/7/1 48/8/1
f 49/1/1 50/2/1 51/3/1 52/4/1
f 53/1/1 54/2/1 55/3/1 56/4/1
f 57/1/1 58/2/1 59/3/1 60/4/1
f 61/5/1 62/6/1 63/7/1 64/8/1
f 65/5/1 66/6/1 67/7/1 68/8/1
f 69/5/1 70/6/1 71/7/1 72/8/1
f 73/5/1 74/6/1 75/7/1 76/8/1
f 77/5/1 78/6/1 79/7/1 80/8/1
f 81/1/1 82/2/1 83/3/1 84/4/1
f 85/5/1 86/6/1 87/7/1 88/8/1
f 89/5/1 90/6/1 91/7/1 92/8/1
f 93/5/1 94/6/1 95/7/1 96/8/1
f 97/5/1 98/6/1 99/7/1 100/8/1
f 101/5/1 102/6/1 103/7/1 104/8/1
f 105/5/1 106/6/1 107/7/1 108/8/1
f 109/5/1 110/6/1 111/7/1 112/8/1
f 113/5/1 114/6/1 115/7/1 116/8/1
f 117/5/1 118/6/1 119/7/1 120/8/1
f 121/9/1 122/1/1 123/4/1 124/10/1
f 125/9/1 126/1/1 127/4/1 128/10/1
f 129/9/1 130/1/1 131/4/1 132/10/1
f 133/9/1 134/1/1 135/4/1 136/10/1
f 137/9/1 138/1/1 139/4/1 140/10/1
f 141/9/1 142/1/1 143/4/1 144/10/1
f 145/1/1 146/2/1 147/3/1 148/4/1
f 149/1/1 150/2/1 151/3/1 152/4/1
f 153/1/1 154/2/1 155/3/1 156/4/1
f 157/1/1 158/2/1 159/3/1 160/4/1
f 161/1/1 162/2/1 163/3/1 164/4/1

