# Tiled2Unity generated file. Do not modify by hand.
# Wavefront file for 'PixelGameTestMap_mesh_0012.obj'

# Vertices (Count = 1024)
v -1 -3 0
v -2 -3 0
v -2 -2 0
v -1 -2 0
v -2 -3 0
v -3 -3 0
v -3 -2 0
v -2 -2 0
v -3 -3 0
v -4 -3 0
v -4 -2 0
v -3 -2 0
v -4 -3 0
v -5 -3 0
v -5 -2 0
v -4 -2 0
v -5 -3 0
v -6 -3 0
v -6 -2 0
v -5 -2 0
v -7 -3 0
v -8 -3 0
v -8 -2 0
v -7 -2 0
v -8 -3 0
v -9 -3 0
v -9 -2 0
v -8 -2 0
v -1 -4 0
v -2 -4 0
v -2 -3 0
v -1 -3 0
v -2 -4 0
v -3 -4 0
v -3 -3 0
v -2 -3 0
v -3 -4 0
v -4 -4 0
v -4 -3 0
v -3 -3 0
v -4 -4 0
v -5 -4 0
v -5 -3 0
v -4 -3 0
v -5 -4 0
v -6 -4 0
v -6 -3 0
v -5 -3 0
v -6 -4 0
v -7 -4 0
v -7 -3 0
v -6 -3 0
v -7 -4 0
v -8 -4 0
v -8 -3 0
v -7 -3 0
v -8 -4 0
v -9 -4 0
v -9 -3 0
v -8 -3 0
v -3 -5 0
v -4 -5 0
v -4 -4 0
v -3 -4 0
v -4 -5 0
v -5 -5 0
v -5 -4 0
v -4 -4 0
v -6 -5 0
v -7 -5 0
v -7 -4 0
v -6 -4 0
v -7 -5 0
v -8 -5 0
v -8 -4 0
v -7 -4 0
v -3 -6 0
v -4 -6 0
v -4 -5 0
v -3 -5 0
v -4 -6 0
v -5 -6 0
v -5 -5 0
v -4 -5 0
v -2 -7 0
v -3 -7 0
v -3 -6 0
v -2 -6 0
v -3 -7 0
v -4 -7 0
v -4 -6 0
v -3 -6 0
v -12 -7 0
v -13 -7 0
v -13 -6 0
v -12 -6 0
v -13 -7 0
v -14 -7 0
v -14 -6 0
v -13 -6 0
v -17 -7 0
v -18 -7 0
v -18 -6 0
v -17 -6 0
v -18 -7 0
v -19 -7 0
v -19 -6 0
v -18 -6 0
v -1 -8 0
v -2 -8 0
v -2 -7 0
v -1 -7 0
v -2 -8 0
v -3 -8 0
v -3 -7 0
v -2 -7 0
v -9 -8 0
v -10 -8 0
v -10 -7 0
v -9 -7 0
v -11 -8 0
v -12 -8 0
v -12 -7 0
v -11 -7 0
v -12 -8 0
v -13 -8 0
v -13 -7 0
v -12 -7 0
v -13 -8 0
v -14 -8 0
v -14 -7 0
v -13 -7 0
v -17 -8 0
v -18 -8 0
v -18 -7 0
v -17 -7 0
v -18 -8 0
v -19 -8 0
v -19 -7 0
v -18 -7 0
v -1 -9 0
v -2 -9 0
v -2 -8 0
v -1 -8 0
v -2 -9 0
v -3 -9 0
v -3 -8 0
v -2 -8 0
v -8 -9 0
v -9 -9 0
v -9 -8 0
v -8 -8 0
v -9 -9 0
v -10 -9 0
v -10 -8 0
v -9 -8 0
v -11 -9 0
v -12 -9 0
v -12 -8 0
v -11 -8 0
v -12 -9 0
v -13 -9 0
v -13 -8 0
v -12 -8 0
v -13 -9 0
v -14 -9 0
v -14 -8 0
v -13 -8 0
v -14 -9 0
v -15 -9 0
v -15 -8 0
v -14 -8 0
v -3 -10 0
v -4 -10 0
v -4 -9 0
v -3 -9 0
v -4 -10 0
v -5 -10 0
v -5 -9 0
v -4 -9 0
v -11 -10 0
v -12 -10 0
v -12 -9 0
v -11 -9 0
v -12 -10 0
v -13 -10 0
v -13 -9 0
v -12 -9 0
v -13 -10 0
v -14 -10 0
v -14 -9 0
v -13 -9 0
v -14 -10 0
v -15 -10 0
v -15 -9 0
v -14 -9 0
v -3 -11 0
v -4 -11 0
v -4 -10 0
v -3 -10 0
v -4 -11 0
v -5 -11 0
v -5 -10 0
v -4 -10 0
v -11 -11 0
v -12 -11 0
v -12 -10 0
v -11 -10 0
v -12 -11 0
v -13 -11 0
v -13 -10 0
v -12 -10 0
v -13 -11 0
v -14 -11 0
v -14 -10 0
v -13 -10 0
v -22 -11 0
v -23 -11 0
v -23 -10 0
v -22 -10 0
v -23 -11 0
v -24 -11 0
v -24 -10 0
v -23 -10 0
v -12 -12 0
v -13 -12 0
v -13 -11 0
v -12 -11 0
v -13 -12 0
v -14 -12 0
v -14 -11 0
v -13 -11 0
v -22 -12 0
v -23 -12 0
v -23 -11 0
v -22 -11 0
v -23 -12 0
v -24 -12 0
v -24 -11 0
v -23 -11 0
v -2 -13 0
v -3 -13 0
v -3 -12 0
v -2 -12 0
v -3 -13 0
v -4 -13 0
v -4 -12 0
v -3 -12 0
v -23 -13 0
v -24 -13 0
v -24 -12 0
v -23 -12 0
v -24 -13 0
v -25 -13 0
v -25 -12 0
v -24 -12 0
v -2 -14 0
v -3 -14 0
v -3 -13 0
v -2 -13 0
v -3 -14 0
v -4 -14 0
v -4 -13 0
v -3 -13 0
v -12 -14 0
v -13 -14 0
v -13 -13 0
v -12 -13 0
v -13 -14 0
v -14 -14 0
v -14 -13 0
v -13 -13 0
v -21 -14 0
v -22 -14 0
v -22 -13 0
v -21 -13 0
v -22 -14 0
v -23 -14 0
v -23 -13 0
v -22 -13 0
v -23 -14 0
v -24 -14 0
v -24 -13 0
v -23 -13 0
v -24 -14 0
v -25 -14 0
v -25 -13 0
v -24 -13 0
v -12 -15 0
v -13 -15 0
v -13 -14 0
v -12 -14 0
v -13 -15 0
v -14 -15 0
v -14 -14 0
v -13 -14 0
v -21 -15 0
v -22 -15 0
v -22 -14 0
v -21 -14 0
v -22 -15 0
v -23 -15 0
v -23 -14 0
v -22 -14 0
v -7 -17 0
v -8 -17 0
v -8 -16 0
v -7 -16 0
v -8 -17 0
v -9 -17 0
v -9 -16 0
v -8 -16 0
v -14 -17 0
v -15 -17 0
v -15 -16 0
v -14 -16 0
v -15 -17 0
v -16 -17 0
v -16 -16 0
v -15 -16 0
v -7 -18 0
v -8 -18 0
v -8 -17 0
v -7 -17 0
v -8 -18 0
v -9 -18 0
v -9 -17 0
v -8 -17 0
v -14 -18 0
v -15 -18 0
v -15 -17 0
v -14 -17 0
v -15 -18 0
v -16 -18 0
v -16 -17 0
v -15 -17 0
v -20 -18 0
v -21 -18 0
v -21 -17 0
v -20 -17 0
v -21 -18 0
v -22 -18 0
v -22 -17 0
v -21 -17 0
v -25 -18 0
v -26 -18 0
v -26 -17 0
v -25 -17 0
v -26 -18 0
v -27 -18 0
v -27 -17 0
v -26 -17 0
v -1 -19 0
v -2 -19 0
v -2 -18 0
v -1 -18 0
v -2 -19 0
v -3 -19 0
v -3 -18 0
v -2 -18 0
v -11 -19 0
v -12 -19 0
v -12 -18 0
v -11 -18 0
v -12 -19 0
v -13 -19 0
v -13 -18 0
v -12 -18 0
v -17 -19 0
v -18 -19 0
v -18 -18 0
v -17 -18 0
v -18 -19 0
v -19 -19 0
v -19 -18 0
v -18 -18 0
v -20 -19 0
v -21 -19 0
v -21 -18 0
v -20 -18 0
v -21 -19 0
v -22 -19 0
v -22 -18 0
v -21 -18 0
v -23 -19 0
v -24 -19 0
v -24 -18 0
v -23 -18 0
v -24 -19 0
v -25 -19 0
v -25 -18 0
v -24 -18 0
v -25 -19 0
v -26 -19 0
v -26 -18 0
v -25 -18 0
v -26 -19 0
v -27 -19 0
v -27 -18 0
v -26 -18 0
v -27 -19 0
v -28 -19 0
v -28 -18 0
v -27 -18 0
v -28 -19 0
v -29 -19 0
v -29 -18 0
v -28 -18 0
v -1 -20 0
v -2 -20 0
v -2 -19 0
v -1 -19 0
v -2 -20 0
v -3 -20 0
v -3 -19 0
v -2 -19 0
v -8 -20 0
v -9 -20 0
v -9 -19 0
v -8 -19 0
v -9 -20 0
v -10 -20 0
v -10 -19 0
v -9 -19 0
v -11 -20 0
v -12 -20 0
v -12 -19 0
v -11 -19 0
v -12 -20 0
v -13 -20 0
v -13 -19 0
v -12 -19 0
v -14 -20 0
v -15 -20 0
v -15 -19 0
v -14 -19 0
v -15 -20 0
v -16 -20 0
v -16 -19 0
v -15 -19 0
v -17 -20 0
v -18 -20 0
v -18 -19 0
v -17 -19 0
v -18 -20 0
v -19 -20 0
v -19 -19 0
v -18 -19 0
v -23 -20 0
v -24 -20 0
v -24 -19 0
v -23 -19 0
v -24 -20 0
v -25 -20 0
v -25 -19 0
v -24 -19 0
v -27 -20 0
v -28 -20 0
v -28 -19 0
v -27 -19 0
v -28 -20 0
v -29 -20 0
v -29 -19 0
v -28 -19 0
v -29 -20 0
v -30 -20 0
v -30 -19 0
v -29 -19 0
v -30 -20 0
v -31 -20 0
v -31 -19 0
v -30 -19 0
v -8 -21 0
v -9 -21 0
v -9 -20 0
v -8 -20 0
v -9 -21 0
v -10 -21 0
v -10 -20 0
v -9 -20 0
v -14 -21 0
v -15 -21 0
v -15 -20 0
v -14 -20 0
v -15 -21 0
v -16 -21 0
v -16 -20 0
v -15 -20 0
v -18 -21 0
v -19 -21 0
v -19 -20 0
v -18 -20 0
v -19 -21 0
v -20 -21 0
v -20 -20 0
v -19 -20 0
v -22 -21 0
v -23 -21 0
v -23 -20 0
v -22 -20 0
v -23 -21 0
v -24 -21 0
v -24 -20 0
v -23 -20 0
v -29 -21 0
v -30 -21 0
v -30 -20 0
v -29 -20 0
v -30 -21 0
v -31 -21 0
v -31 -20 0
v -30 -20 0
v -12 -22 0
v -13 -22 0
v -13 -21 0
v -12 -21 0
v -13 -22 0
v -14 -22 0
v -14 -21 0
v -13 -21 0
v -14 -22 0
v -15 -22 0
v -15 -21 0
v -14 -21 0
v -15 -22 0
v -16 -22 0
v -16 -21 0
v -15 -21 0
v -18 -22 0
v -19 -22 0
v -19 -21 0
v -18 -21 0
v -19 -22 0
v -20 -22 0
v -20 -21 0
v -19 -21 0
v -22 -22 0
v -23 -22 0
v -23 -21 0
v -22 -21 0
v -23 -22 0
v -24 -22 0
v -24 -21 0
v -23 -21 0
v -8 -23 0
v -9 -23 0
v -9 -22 0
v -8 -22 0
v -9 -23 0
v -10 -23 0
v -10 -22 0
v -9 -22 0
v -12 -23 0
v -13 -23 0
v -13 -22 0
v -12 -22 0
v -13 -23 0
v -14 -23 0
v -14 -22 0
v -13 -22 0
v -14 -23 0
v -15 -23 0
v -15 -22 0
v -14 -22 0
v -15 -23 0
v -16 -23 0
v -16 -22 0
v -15 -22 0
v -20 -23 0
v -21 -23 0
v -21 -22 0
v -20 -22 0
v -21 -23 0
v -22 -23 0
v -22 -22 0
v -21 -22 0
v -1 -24 0
v -2 -24 0
v -2 -23 0
v -1 -23 0
v -2 -24 0
v -3 -24 0
v -3 -23 0
v -2 -23 0
v -8 -24 0
v -9 -24 0
v -9 -23 0
v -8 -23 0
v -9 -24 0
v -10 -24 0
v -10 -23 0
v -9 -23 0
v -20 -24 0
v -21 -24 0
v -21 -23 0
v -20 -23 0
v -21 -24 0
v -22 -24 0
v -22 -23 0
v -21 -23 0
v -1 -25 0
v -2 -25 0
v -2 -24 0
v -1 -24 0
v -2 -25 0
v -3 -25 0
v -3 -24 0
v -2 -24 0
v -4 -25 0
v -5 -25 0
v -5 -24 0
v -4 -24 0
v -5 -25 0
v -6 -25 0
v -6 -24 0
v -5 -24 0
v -6 -25 0
v -7 -25 0
v -7 -24 0
v -6 -24 0
v -7 -25 0
v -8 -25 0
v -8 -24 0
v -7 -24 0
v -23 -25 0
v -24 -25 0
v -24 -24 0
v -23 -24 0
v -24 -25 0
v -25 -25 0
v -25 -24 0
v -24 -24 0
v -4 -26 0
v -5 -26 0
v -5 -25 0
v -4 -25 0
v -5 -26 0
v -6 -26 0
v -6 -25 0
v -5 -25 0
v -6 -26 0
v -7 -26 0
v -7 -25 0
v -6 -25 0
v -7 -26 0
v -8 -26 0
v -8 -25 0
v -7 -25 0
v -11 -26 0
v -12 -26 0
v -12 -25 0
v -11 -25 0
v -12 -26 0
v -13 -26 0
v -13 -25 0
v -12 -25 0
v -20 -26 0
v -21 -26 0
v -21 -25 0
v -20 -25 0
v -21 -26 0
v -22 -26 0
v -22 -25 0
v -21 -25 0
v -23 -26 0
v -24 -26 0
v -24 -25 0
v -23 -25 0
v -24 -26 0
v -25 -26 0
v -25 -25 0
v -24 -25 0
v -11 -27 0
v -12 -27 0
v -12 -26 0
v -11 -26 0
v -12 -27 0
v -13 -27 0
v -13 -26 0
v -12 -26 0
v -13 -27 0
v -14 -27 0
v -14 -26 0
v -13 -26 0
v -14 -27 0
v -15 -27 0
v -15 -26 0
v -14 -26 0
v -20 -27 0
v -21 -27 0
v -21 -26 0
v -20 -26 0
v -21 -27 0
v -22 -27 0
v -22 -26 0
v -21 -26 0
v -24 -27 0
v -25 -27 0
v -25 -26 0
v -24 -26 0
v -25 -27 0
v -26 -27 0
v -26 -26 0
v -25 -26 0
v -28 -27 0
v -29 -27 0
v -29 -26 0
v -28 -26 0
v -29 -27 0
v -30 -27 0
v -30 -26 0
v -29 -26 0
v -5 -28 0
v -6 -28 0
v -6 -27 0
v -5 -27 0
v -6 -28 0
v -7 -28 0
v -7 -27 0
v -6 -27 0
v -13 -28 0
v -14 -28 0
v -14 -27 0
v -13 -27 0
v -14 -28 0
v -15 -28 0
v -15 -27 0
v -14 -27 0
v -17 -28 0
v -18 -28 0
v -18 -27 0
v -17 -27 0
v -18 -28 0
v -19 -28 0
v -19 -27 0
v -18 -27 0
v -24 -28 0
v -25 -28 0
v -25 -27 0
v -24 -27 0
v -25 -28 0
v -26 -28 0
v -26 -27 0
v -25 -27 0
v -28 -28 0
v -29 -28 0
v -29 -27 0
v -28 -27 0
v -29 -28 0
v -30 -28 0
v -30 -27 0
v -29 -27 0
v -5 -29 0
v -6 -29 0
v -6 -28 0
v -5 -28 0
v -6 -29 0
v -7 -29 0
v -7 -28 0
v -6 -28 0
v -9 -29 0
v -10 -29 0
v -10 -28 0
v -9 -28 0
v -10 -29 0
v -11 -29 0
v -11 -28 0
v -10 -28 0
v -12 -29 0
v -13 -29 0
v -13 -28 0
v -12 -28 0
v -13 -29 0
v -14 -29 0
v -14 -28 0
v -13 -28 0
v -17 -29 0
v -18 -29 0
v -18 -28 0
v -17 -28 0
v -18 -29 0
v -19 -29 0
v -19 -28 0
v -18 -28 0
v -9 -30 0
v -10 -30 0
v -10 -29 0
v -9 -29 0
v -10 -30 0
v -11 -30 0
v -11 -29 0
v -10 -29 0
v -12 -30 0
v -13 -30 0
v -13 -29 0
v -12 -29 0
v -13 -30 0
v -14 -30 0
v -14 -29 0
v -13 -29 0
v -4 -31 0
v -5 -31 0
v -5 -30 0
v -4 -30 0
v -5 -31 0
v -6 -31 0
v -6 -30 0
v -5 -30 0
v -14 -31 0
v -15 -31 0
v -15 -30 0
v -14 -30 0
v -15 -31 0
v -16 -31 0
v -16 -30 0
v -15 -30 0
v -16 -31 0
v -17 -31 0
v -17 -30 0
v -16 -30 0
v -17 -31 0
v -18 -31 0
v -18 -30 0
v -17 -30 0
v -19 -31 0
v -20 -31 0
v -20 -30 0
v -19 -30 0
v -20 -31 0
v -21 -31 0
v -21 -30 0
v -20 -30 0
v -22 -31 0
v -23 -31 0
v -23 -30 0
v -22 -30 0
v -23 -31 0
v -24 -31 0
v -24 -30 0
v -23 -30 0
v -29 -31 0
v -30 -31 0
v -30 -30 0
v -29 -30 0
v -30 -31 0
v -31 -31 0
v -31 -30 0
v -30 -30 0
v -4 -32 0
v -5 -32 0
v -5 -31 0
v -4 -31 0
v -5 -32 0
v -6 -32 0
v -6 -31 0
v -5 -31 0
v -6 -32 0
v -7 -32 0
v -7 -31 0
v -6 -31 0
v -10 -32 0
v -11 -32 0
v -11 -31 0
v -10 -31 0
v -11 -32 0
v -12 -32 0
v -12 -31 0
v -11 -31 0
v -14 -32 0
v -15 -32 0
v -15 -31 0
v -14 -31 0
v -15 -32 0
v -16 -32 0
v -16 -31 0
v -15 -31 0
v -16 -32 0
v -17 -32 0
v -17 -31 0
v -16 -31 0
v -17 -32 0
v -18 -32 0
v -18 -31 0
v -17 -31 0
v -19 -32 0
v -20 -32 0
v -20 -31 0
v -19 -31 0
v -20 -32 0
v -21 -32 0
v -21 -31 0
v -20 -31 0
v -22 -32 0
v -23 -32 0
v -23 -31 0
v -22 -31 0
v -23 -32 0
v -24 -32 0
v -24 -31 0
v -23 -31 0
v -29 -32 0
v -30 -32 0
v -30 -31 0
v -29 -31 0
v -30 -32 0
v -31 -32 0
v -31 -31 0
v -30 -31 0
v -5 -33 0
v -6 -33 0
v -6 -32 0
v -5 -32 0
v -6 -33 0
v -7 -33 0
v -7 -32 0
v -6 -32 0
v -10 -33 0
v -11 -33 0
v -11 -32 0
v -10 -32 0
v -11 -33 0
v -12 -33 0
v -12 -32 0
v -11 -32 0
v -3 -35 0
v -4 -35 0
v -4 -34 0
v -3 -34 0
v -4 -35 0
v -5 -35 0
v -5 -34 0
v -4 -34 0
v -5 -35 0
v -6 -35 0
v -6 -34 0
v -5 -34 0
v -6 -35 0
v -7 -35 0
v -7 -34 0
v -6 -34 0
v -3 -36 0
v -4 -36 0
v -4 -35 0
v -3 -35 0
v -4 -36 0
v -5 -36 0
v -5 -35 0
v -4 -35 0
v -5 -36 0
v -6 -36 0
v -6 -35 0
v -5 -35 0
v -6 -36 0
v -7 -36 0
v -7 -35 0
v -6 -35 0
v -10 -36 0
v -11 -36 0
v -11 -35 0
v -10 -35 0
v -11 -36 0
v -12 -36 0
v -12 -35 0
v -11 -35 0
v -25 -36 0
v -26 -36 0
v -26 -35 0
v -25 -35 0
v -26 -36 0
v -27 -36 0
v -27 -35 0
v -26 -35 0
v -27 -36 0
v -28 -36 0
v -28 -35 0
v -27 -35 0
v -10 -37 0
v -11 -37 0
v -11 -36 0
v -10 -36 0
v -11 -37 0
v -12 -37 0
v -12 -36 0
v -11 -36 0
v -24 -37 0
v -25 -37 0
v -25 -36 0
v -24 -36 0
v -25 -37 0
v -26 -37 0
v -26 -36 0
v -25 -36 0
v -26 -37 0
v -27 -37 0
v -27 -36 0
v -26 -36 0
v -27 -37 0
v -28 -37 0
v -28 -36 0
v -27 -36 0
v -13 -38 0
v -14 -38 0
v -14 -37 0
v -13 -37 0
v -14 -38 0
v -15 -38 0
v -15 -37 0
v -14 -37 0
v -24 -38 0
v -25 -38 0
v -25 -37 0
v -24 -37 0
v -25 -38 0
v -26 -38 0
v -26 -37 0
v -25 -37 0
v -13 -39 0
v -14 -39 0
v -14 -38 0
v -13 -38 0
v -14 -39 0
v -15 -39 0
v -15 -38 0
v -14 -38 0

# Texture cooridinates (Count = 20)
vt 0.3 0.1
vt 0.4 0.1
vt 0.4 0.2
vt 0.3 0.2
vt 0.5 0.1
vt 0.5 0.2
vt 0.3 0.7
vt 0.4 0.7
vt 0.4 0.8
vt 0.3 0.8
vt 0.5 0.7
vt 0.5 0.8
vt 0.3 0
vt 0.4 0
vt 0.5 0
vt 0.3 0.6
vt 0.4 0.6
vt 0.5 0.6
vt 0.6 0
vt 0.6 0.1

# Normal
vn 0 0 -1

# Mesh description
g PixelGameTestMap_mesh_0012

# Faces
f 1/1/1 2/2/1 3/3/1 4/4/1
f 5/2/1 6/5/1 7/6/1 8/3/1
f 9/1/1 10/2/1 11/3/1 12/4/1
f 13/7/1 14/8/1 15/9/1 16/10/1
f 17/8/1 18/11/1 19/12/1 20/9/1
f 21/7/1 22/8/1 23/9/1 24/10/1
f 25/8/1 26/11/1 27/12/1 28/9/1
f 29/13/1 30/14/1 31/2/1 32/1/1
f 33/14/1 34/15/1 35/5/1 36/2/1
f 37/13/1 38/14/1 39/2/1 40/1/1
f 41/16/1 42/17/1 43/8/1 44/7/1
f 45/17/1 46/18/1 47/11/1 48/8/1
f 49/7/1 50/8/1 51/9/1 52/10/1
f 53/8/1 54/11/1 55/12/1 56/9/1
f 57/17/1 58/18/1 59/11/1 60/8/1
f 61/1/1 62/2/1 63/3/1 64/4/1
f 65/2/1 66/5/1 67/6/1 68/3/1
f 69/16/1 70/17/1 71/8/1 72/7/1
f 73/17/1 74/18/1 75/11/1 76/8/1
f 77/2/1 78/5/1 79/6/1 80/3/1
f 81/14/1 82/15/1 83/5/1 84/2/1
f 85/13/1 86/14/1 87/2/1 88/1/1
f 89/14/1 90/15/1 91/5/1 92/2/1
f 93/7/1 94/8/1 95/9/1 96/10/1
f 97/8/1 98/11/1 99/12/1 100/9/1
f 101/7/1 102/8/1 103/9/1 104/10/1
f 105/8/1 106/11/1 107/12/1 108/9/1
f 109/7/1 110/8/1 111/9/1 112/10/1
f 113/8/1 114/11/1 115/12/1 116/9/1
f 117/8/1 118/11/1 119/12/1 120/9/1
f 121/7/1 122/8/1 123/9/1 124/10/1
f 125/16/1 126/17/1 127/8/1 128/7/1
f 129/17/1 130/18/1 131/11/1 132/8/1
f 133/16/1 134/17/1 135/8/1 136/7/1
f 137/17/1 138/18/1 139/11/1 140/8/1
f 141/16/1 142/17/1 143/8/1 144/7/1
f 145/17/1 146/18/1 147/11/1 148/8/1
f 149/16/1 150/17/1 151/8/1 152/7/1
f 153/17/1 154/18/1 155/11/1 156/8/1
f 157/16/1 158/17/1 159/8/1 160/7/1
f 161/17/1 162/18/1 163/11/1 164/8/1
f 165/8/1 166/11/1 167/12/1 168/9/1
f 169/15/1 170/19/1 171/20/1 172/5/1
f 173/7/1 174/8/1 175/9/1 176/10/1
f 177/8/1 178/11/1 179/12/1 180/9/1
f 181/7/1 182/8/1 183/9/1 184/10/1
f 185/8/1 186/11/1 187/12/1 188/9/1
f 189/17/1 190/18/1 191/11/1 192/8/1
f 193/15/1 194/19/1 195/20/1 196/5/1
f 197/16/1 198/17/1 199/8/1 200/7/1
f 201/17/1 202/18/1 203/11/1 204/8/1
f 205/16/1 206/17/1 207/8/1 208/7/1
f 209/17/1 210/18/1 211/11/1 212/8/1
f 213/8/1 214/11/1 215/12/1 216/9/1
f 217/7/1 218/8/1 219/9/1 220/10/1
f 221/8/1 222/11/1 223/12/1 224/9/1
f 225/16/1 226/17/1 227/8/1 228/7/1
f 229/17/1 230/18/1 231/11/1 232/8/1
f 233/16/1 234/17/1 235/8/1 236/7/1
f 237/17/1 238/18/1 239/11/1 240/8/1
f 241/7/1 242/8/1 243/9/1 244/10/1
f 245/8/1 246/11/1 247/12/1 248/9/1
f 249/7/1 250/8/1 251/9/1 252/10/1
f 253/8/1 254/11/1 255/12/1 256/9/1
f 257/16/1 258/17/1 259/8/1 260/7/1
f 261/17/1 262/18/1 263/11/1 264/8/1
f 265/7/1 266/8/1 267/9/1 268/10/1
f 269/8/1 270/11/1 271/12/1 272/9/1
f 273/7/1 274/8/1 275/9/1 276/10/1
f 277/8/1 278/11/1 279/12/1 280/9/1
f 281/16/1 282/17/1 283/8/1 284/7/1
f 285/17/1 286/18/1 287/11/1 288/8/1
f 289/16/1 290/17/1 291/8/1 292/7/1
f 293/17/1 294/18/1 295/11/1 296/8/1
f 297/16/1 298/17/1 299/8/1 300/7/1
f 301/17/1 302/18/1 303/11/1 304/8/1
f 305/7/1 306/8/1 307/9/1 308/10/1
f 309/8/1 310/11/1 311/12/1 312/9/1
f 313/7/1 314/8/1 315/9/1 316/10/1
f 317/8/1 318/11/1 319/12/1 320/9/1
f 321/16/1 322/17/1 323/8/1 324/7/1
f 325/17/1 326/18/1 327/11/1 328/8/1
f 329/16/1 330/17/1 331/8/1 332/7/1
f 333/17/1 334/18/1 335/11/1 336/8/1
f 337/7/1 338/8/1 339/9/1 340/10/1
f 341/8/1 342/11/1 343/12/1 344/9/1
f 345/7/1 346/8/1 347/9/1 348/10/1
f 349/8/1 350/11/1 351/12/1 352/9/1
f 353/7/1 354/8/1 355/9/1 356/10/1
f 357/8/1 358/11/1 359/12/1 360/9/1
f 361/7/1 362/8/1 363/9/1 364/10/1
f 365/8/1 366/11/1 367/12/1 368/9/1
f 369/7/1 370/8/1 371/9/1 372/10/1
f 373/8/1 374/11/1 375/12/1 376/9/1
f 377/16/1 378/17/1 379/8/1 380/7/1
f 381/17/1 382/18/1 383/11/1 384/8/1
f 385/7/1 386/8/1 387/9/1 388/10/1
f 389/8/1 390/11/1 391/12/1 392/9/1
f 393/16/1 394/17/1 395/8/1 396/7/1
f 397/17/1 398/18/1 399/11/1 400/8/1
f 401/7/1 402/8/1 403/9/1 404/10/1
f 405/8/1 406/11/1 407/12/1 408/9/1
f 409/16/1 410/17/1 411/8/1 412/7/1
f 413/17/1 414/18/1 415/11/1 416/8/1
f 417/7/1 418/8/1 419/9/1 420/10/1
f 421/8/1 422/11/1 423/12/1 424/9/1
f 425/16/1 426/17/1 427/8/1 428/7/1
f 429/17/1 430/18/1 431/11/1 432/8/1
f 433/7/1 434/8/1 435/9/1 436/10/1
f 437/8/1 438/11/1 439/12/1 440/9/1
f 441/16/1 442/17/1 443/8/1 444/7/1
f 445/17/1 446/18/1 447/11/1 448/8/1
f 449/16/1 450/17/1 451/8/1 452/7/1
f 453/17/1 454/18/1 455/11/1 456/8/1
f 457/16/1 458/17/1 459/8/1 460/7/1
f 461/17/1 462/18/1 463/11/1 464/8/1
f 465/7/1 466/8/1 467/9/1 468/10/1
f 469/8/1 470/11/1 471/12/1 472/9/1
f 473/16/1 474/17/1 475/8/1 476/7/1
f 477/17/1 478/18/1 479/11/1 480/8/1
f 481/16/1 482/17/1 483/8/1 484/7/1
f 485/17/1 486/18/1 487/11/1 488/8/1
f 489/7/1 490/8/1 491/9/1 492/10/1
f 493/8/1 494/11/1 495/12/1 496/9/1
f 497/7/1 498/8/1 499/9/1 500/10/1
f 501/8/1 502/11/1 503/12/1 504/9/1
f 505/16/1 506/17/1 507/8/1 508/7/1
f 509/17/1 510/18/1 511/11/1 512/8/1
f 513/7/1 514/8/1 515/9/1 516/10/1
f 517/8/1 518/11/1 519/12/1 520/9/1
f 521/7/1 522/8/1 523/9/1 524/10/1
f 525/8/1 526/11/1 527/12/1 528/9/1
f 529/16/1 530/17/1 531/8/1 532/7/1
f 533/17/1 534/18/1 535/11/1 536/8/1
f 537/16/1 538/17/1 539/8/1 540/7/1
f 541/17/1 542/18/1 543/11/1 544/8/1
f 545/7/1 546/8/1 547/9/1 548/10/1
f 549/8/1 550/11/1 551/12/1 552/9/1
f 553/16/1 554/17/1 555/8/1 556/7/1
f 557/17/1 558/18/1 559/11/1 560/8/1
f 561/16/1 562/17/1 563/8/1 564/7/1
f 565/17/1 566/18/1 567/11/1 568/8/1
f 569/7/1 570/8/1 571/9/1 572/10/1
f 573/8/1 574/11/1 575/12/1 576/9/1
f 577/7/1 578/8/1 579/9/1 580/10/1
f 581/8/1 582/11/1 583/12/1 584/9/1
f 585/16/1 586/17/1 587/8/1 588/7/1
f 589/17/1 590/18/1 591/11/1 592/8/1
f 593/16/1 594/17/1 595/8/1 596/7/1
f 597/17/1 598/18/1 599/11/1 600/8/1
f 601/16/1 602/17/1 603/8/1 604/7/1
f 605/17/1 606/18/1 607/11/1 608/8/1
f 609/7/1 610/8/1 611/9/1 612/10/1
f 613/8/1 614/11/1 615/12/1 616/9/1
f 617/7/1 618/8/1 619/9/1 620/10/1
f 621/8/1 622/11/1 623/12/1 624/9/1
f 625/7/1 626/8/1 627/9/1 628/10/1
f 629/8/1 630/11/1 631/12/1 632/9/1
f 633/16/1 634/17/1 635/8/1 636/7/1
f 637/17/1 638/18/1 639/11/1 640/8/1
f 641/16/1 642/17/1 643/8/1 644/7/1
f 645/17/1 646/18/1 647/11/1 648/8/1
f 649/7/1 650/8/1 651/9/1 652/10/1
f 653/8/1 654/11/1 655/12/1 656/9/1
f 657/7/1 658/8/1 659/9/1 660/10/1
f 661/8/1 662/11/1 663/12/1 664/9/1
f 665/16/1 666/17/1 667/8/1 668/7/1
f 669/17/1 670/18/1 671/11/1 672/8/1
f 673/16/1 674/17/1 675/8/1 676/7/1
f 677/17/1 678/18/1 679/11/1 680/8/1
f 681/7/1 682/8/1 683/9/1 684/10/1
f 685/8/1 686/11/1 687/12/1 688/9/1
f 689/16/1 690/17/1 691/8/1 692/7/1
f 693/17/1 694/18/1 695/11/1 696/8/1
f 697/7/1 698/8/1 699/9/1 700/10/1
f 701/8/1 702/11/1 703/12/1 704/9/1
f 705/7/1 706/8/1 707/9/1 708/10/1
f 709/8/1 710/11/1 711/12/1 712/9/1
f 713/7/1 714/8/1 715/9/1 716/10/1
f 717/8/1 718/11/1 719/12/1 720/9/1
f 721/16/1 722/17/1 723/8/1 724/7/1
f 725/17/1 726/18/1 727/11/1 728/8/1
f 729/7/1 730/8/1 731/9/1 732/10/1
f 733/8/1 734/11/1 735/12/1 736/9/1
f 737/16/1 738/17/1 739/8/1 740/7/1
f 741/17/1 742/18/1 743/11/1 744/8/1
f 745/16/1 746/17/1 747/8/1 748/7/1
f 749/17/1 750/18/1 751/11/1 752/8/1
f 753/16/1 754/17/1 755/8/1 756/7/1
f 757/17/1 758/18/1 759/11/1 760/8/1
f 761/7/1 762/8/1 763/9/1 764/10/1
f 765/8/1 766/11/1 767/12/1 768/9/1
f 769/7/1 770/8/1 771/9/1 772/10/1
f 773/8/1 774/11/1 775/12/1 776/9/1
f 777/16/1 778/17/1 779/8/1 780/7/1
f 781/17/1 782/18/1 783/11/1 784/8/1
f 785/16/1 786/17/1 787/8/1 788/7/1
f 789/17/1 790/18/1 791/11/1 792/8/1
f 793/16/1 794/17/1 795/8/1 796/7/1
f 797/17/1 798/18/1 799/11/1 800/8/1
f 801/7/1 802/8/1 803/9/1 804/10/1
f 805/8/1 806/11/1 807/12/1 808/9/1
f 809/7/1 810/8/1 811/9/1 812/10/1
f 813/8/1 814/11/1 815/12/1 816/9/1
f 817/7/1 818/8/1 819/9/1 820/10/1
f 821/8/1 822/11/1 823/12/1 824/9/1
f 825/7/1 826/8/1 827/9/1 828/10/1
f 829/8/1 830/11/1 831/12/1 832/9/1
f 833/7/1 834/8/1 835/9/1 836/10/1
f 837/8/1 838/11/1 839/12/1 840/9/1
f 841/7/1 842/8/1 843/9/1 844/10/1
f 845/8/1 846/11/1 847/12/1 848/9/1
f 849/16/1 850/17/1 851/8/1 852/7/1
f 853/7/1 854/8/1 855/9/1 856/10/1
f 857/8/1 858/11/1 859/12/1 860/9/1
f 861/7/1 862/8/1 863/9/1 864/10/1
f 865/8/1 866/11/1 867/12/1 868/9/1
f 869/16/1 870/17/1 871/8/1 872/7/1
f 873/17/1 874/18/1 875/11/1 876/8/1
f 877/16/1 878/17/1 879/8/1 880/7/1
f 881/17/1 882/18/1 883/11/1 884/8/1
f 885/16/1 886/17/1 887/8/1 888/7/1
f 889/17/1 890/18/1 891/11/1 892/8/1
f 893/16/1 894/17/1 895/8/1 896/7/1
f 897/17/1 898/18/1 899/11/1 900/8/1
f 901/16/1 902/17/1 903/8/1 904/7/1
f 905/17/1 906/18/1 907/11/1 908/8/1
f 909/16/1 910/17/1 911/8/1 912/7/1
f 913/17/1 914/18/1 915/11/1 916/8/1
f 917/16/1 918/17/1 919/8/1 920/7/1
f 921/17/1 922/18/1 923/11/1 924/8/1
f 925/7/1 926/8/1 927/9/1 928/10/1
f 929/8/1 930/11/1 931/12/1 932/9/1
f 933/7/1 934/8/1 935/9/1 936/10/1
f 937/8/1 938/11/1 939/12/1 940/9/1
f 941/16/1 942/17/1 943/8/1 944/7/1
f 945/17/1 946/18/1 947/11/1 948/8/1
f 949/16/1 950/17/1 951/8/1 952/7/1
f 953/17/1 954/18/1 955/11/1 956/8/1
f 957/7/1 958/8/1 959/9/1 960/10/1
f 961/8/1 962/11/1 963/12/1 964/9/1
f 965/14/1 966/15/1 967/5/1 968/2/1
f 969/7/1 970/8/1 971/9/1 972/10/1
f 973/8/1 974/11/1 975/12/1 976/9/1
f 977/16/1 978/17/1 979/8/1 980/7/1
f 981/17/1 982/18/1 983/11/1 984/8/1
f 985/7/1 986/8/1 987/9/1 988/10/1
f 989/8/1 990/11/1 991/12/1 992/9/1
f 993/16/1 994/17/1 995/8/1 996/7/1
f 997/17/1 998/18/1 999/11/1 1000/8/1
f 1001/7/1 1002/8/1 1003/9/1 1004/10/1
f 1005/8/1 1006/11/1 1007/12/1 1008/9/1
f 1009/16/1 1010/17/1 1011/8/1 1012/7/1
f 1013/17/1 1014/18/1 1015/11/1 1016/8/1
f 1017/16/1 1018/17/1 1019/8/1 1020/7/1
f 1021/17/1 1022/18/1 1023/11/1 1024/8/1

