# Tiled2Unity generated file. Do not modify by hand.
# Wavefront file for 'PixelGameTestMap_mesh_0006.obj'

# Vertices (Count = 768)
v -5 -8 0
v -6 -8 0
v -6 -7 0
v -5 -7 0
v -51 -31 0
v -52 -31 0
v -52 -30 0
v -51 -30 0
v -51 -32 0
v -52 -32 0
v -52 -31 0
v -51 -31 0
v -46 -33 0
v -47 -33 0
v -47 -32 0
v -46 -32 0
v -47 -33 0
v -48 -33 0
v -48 -32 0
v -47 -32 0
v -49 -33 0
v -50 -33 0
v -50 -32 0
v -49 -32 0
v -50 -33 0
v -51 -33 0
v -51 -32 0
v -50 -32 0
v -51 -33 0
v -52 -33 0
v -52 -32 0
v -51 -32 0
v -45 -34 0
v -46 -34 0
v -46 -33 0
v -45 -33 0
v -46 -34 0
v -47 -34 0
v -47 -33 0
v -46 -33 0
v -47 -34 0
v -48 -34 0
v -48 -33 0
v -47 -33 0
v -48 -34 0
v -49 -34 0
v -49 -33 0
v -48 -33 0
v -49 -34 0
v -50 -34 0
v -50 -33 0
v -49 -33 0
v -50 -34 0
v -51 -34 0
v -51 -33 0
v -50 -33 0
v -51 -34 0
v -52 -34 0
v -52 -33 0
v -51 -33 0
v -45 -35 0
v -46 -35 0
v -46 -34 0
v -45 -34 0
v -46 -35 0
v -47 -35 0
v -47 -34 0
v -46 -34 0
v -47 -35 0
v -48 -35 0
v -48 -34 0
v -47 -34 0
v -49 -35 0
v -50 -35 0
v -50 -34 0
v -49 -34 0
v -50 -35 0
v -51 -35 0
v -51 -34 0
v -50 -34 0
v -51 -35 0
v -52 -35 0
v -52 -34 0
v -51 -34 0
v -45 -36 0
v -46 -36 0
v -46 -35 0
v -45 -35 0
v -46 -36 0
v -47 -36 0
v -47 -35 0
v -46 -35 0
v -48 -36 0
v -49 -36 0
v -49 -35 0
v -48 -35 0
v -49 -36 0
v -50 -36 0
v -50 -35 0
v -49 -35 0
v -50 -36 0
v -51 -36 0
v -51 -35 0
v -50 -35 0
v -51 -36 0
v -52 -36 0
v -52 -35 0
v -51 -35 0
v -44 -37 0
v -45 -37 0
v -45 -36 0
v -44 -36 0
v -45 -37 0
v -46 -37 0
v -46 -36 0
v -45 -36 0
v -46 -37 0
v -47 -37 0
v -47 -36 0
v -46 -36 0
v -48 -37 0
v -49 -37 0
v -49 -36 0
v -48 -36 0
v -49 -37 0
v -50 -37 0
v -50 -36 0
v -49 -36 0
v -50 -37 0
v -51 -37 0
v -51 -36 0
v -50 -36 0
v -51 -37 0
v -52 -37 0
v -52 -36 0
v -51 -36 0
v -41 -38 0
v -42 -38 0
v -42 -37 0
v -41 -37 0
v -42 -38 0
v -43 -38 0
v -43 -37 0
v -42 -37 0
v -43 -38 0
v -44 -38 0
v -44 -37 0
v -43 -37 0
v -44 -38 0
v -45 -38 0
v -45 -37 0
v -44 -37 0
v -45 -38 0
v -46 -38 0
v -46 -37 0
v -45 -37 0
v -46 -38 0
v -47 -38 0
v -47 -37 0
v -46 -37 0
v -47 -38 0
v -48 -38 0
v -48 -37 0
v -47 -37 0
v -48 -38 0
v -49 -38 0
v -49 -37 0
v -48 -37 0
v -49 -38 0
v -50 -38 0
v -50 -37 0
v -49 -37 0
v -50 -38 0
v -51 -38 0
v -51 -37 0
v -50 -37 0
v -51 -38 0
v -52 -38 0
v -52 -37 0
v -51 -37 0
v -59 -38 0
v -60 -38 0
v -60 -37 0
v -59 -37 0
v -60 -38 0
v -61 -38 0
v -61 -37 0
v -60 -37 0
v -42 -39 0
v -43 -39 0
v -43 -38 0
v -42 -38 0
v -43 -39 0
v -44 -39 0
v -44 -38 0
v -43 -38 0
v -44 -39 0
v -45 -39 0
v -45 -38 0
v -44 -38 0
v -45 -39 0
v -46 -39 0
v -46 -38 0
v -45 -38 0
v -48 -39 0
v -49 -39 0
v -49 -38 0
v -48 -38 0
v -49 -39 0
v -50 -39 0
v -50 -38 0
v -49 -38 0
v -50 -39 0
v -51 -39 0
v -51 -38 0
v -50 -38 0
v -51 -39 0
v -52 -39 0
v -52 -38 0
v -51 -38 0
v -52 -39 0
v -53 -39 0
v -53 -38 0
v -52 -38 0
v -53 -39 0
v -54 -39 0
v -54 -38 0
v -53 -38 0
v -54 -39 0
v -55 -39 0
v -55 -38 0
v -54 -38 0
v -55 -39 0
v -56 -39 0
v -56 -38 0
v -55 -38 0
v -58 -39 0
v -59 -39 0
v -59 -38 0
v -58 -38 0
v -59 -39 0
v -60 -39 0
v -60 -38 0
v -59 -38 0
v -60 -39 0
v -61 -39 0
v -61 -38 0
v -60 -38 0
v -43 -40 0
v -44 -40 0
v -44 -39 0
v -43 -39 0
v -45 -40 0
v -46 -40 0
v -46 -39 0
v -45 -39 0
v -46 -40 0
v -47 -40 0
v -47 -39 0
v -46 -39 0
v -47 -40 0
v -48 -40 0
v -48 -39 0
v -47 -39 0
v -48 -40 0
v -49 -40 0
v -49 -39 0
v -48 -39 0
v -49 -40 0
v -50 -40 0
v -50 -39 0
v -49 -39 0
v -50 -40 0
v -51 -40 0
v -51 -39 0
v -50 -39 0
v -51 -40 0
v -52 -40 0
v -52 -39 0
v -51 -39 0
v -52 -40 0
v -53 -40 0
v -53 -39 0
v -52 -39 0
v -53 -40 0
v -54 -40 0
v -54 -39 0
v -53 -39 0
v -54 -40 0
v -55 -40 0
v -55 -39 0
v -54 -39 0
v -55 -40 0
v -56 -40 0
v -56 -39 0
v -55 -39 0
v -58 -40 0
v -59 -40 0
v -59 -39 0
v -58 -39 0
v -59 -40 0
v -60 -40 0
v -60 -39 0
v -59 -39 0
v -43 -41 0
v -44 -41 0
v -44 -40 0
v -43 -40 0
v -44 -41 0
v -45 -41 0
v -45 -40 0
v -44 -40 0
v -45 -41 0
v -46 -41 0
v -46 -40 0
v -45 -40 0
v -47 -41 0
v -48 -41 0
v -48 -40 0
v -47 -40 0
v -48 -41 0
v -49 -41 0
v -49 -40 0
v -48 -40 0
v -49 -41 0
v -50 -41 0
v -50 -40 0
v -49 -40 0
v -50 -41 0
v -51 -41 0
v -51 -40 0
v -50 -40 0
v -51 -41 0
v -52 -41 0
v -52 -40 0
v -51 -40 0
v -52 -41 0
v -53 -41 0
v -53 -40 0
v -52 -40 0
v -53 -41 0
v -54 -41 0
v -54 -40 0
v -53 -40 0
v -54 -41 0
v -55 -41 0
v -55 -40 0
v -54 -40 0
v -56 -41 0
v -57 -41 0
v -57 -40 0
v -56 -40 0
v -57 -41 0
v -58 -41 0
v -58 -40 0
v -57 -40 0
v -58 -41 0
v -59 -41 0
v -59 -40 0
v -58 -40 0
v -59 -41 0
v -60 -41 0
v -60 -40 0
v -59 -40 0
v -60 -41 0
v -61 -41 0
v -61 -40 0
v -60 -40 0
v -61 -41 0
v -62 -41 0
v -62 -40 0
v -61 -40 0
v -63 -41 0
v -64 -41 0
v -64 -40 0
v -63 -40 0
v -64 -41 0
v -65 -41 0
v -65 -40 0
v -64 -40 0
v -65 -41 0
v -66 -41 0
v -66 -40 0
v -65 -40 0
v -66 -41 0
v -67 -41 0
v -67 -40 0
v -66 -40 0
v -67 -41 0
v -68 -41 0
v -68 -40 0
v -67 -40 0
v -68 -41 0
v -69 -41 0
v -69 -40 0
v -68 -40 0
v -44 -42 0
v -45 -42 0
v -45 -41 0
v -44 -41 0
v -45 -42 0
v -46 -42 0
v -46 -41 0
v -45 -41 0
v -48 -42 0
v -49 -42 0
v -49 -41 0
v -48 -41 0
v -49 -42 0
v -50 -42 0
v -50 -41 0
v -49 -41 0
v -50 -42 0
v -51 -42 0
v -51 -41 0
v -50 -41 0
v -51 -42 0
v -52 -42 0
v -52 -41 0
v -51 -41 0
v -52 -42 0
v -53 -42 0
v -53 -41 0
v -52 -41 0
v -53 -42 0
v -54 -42 0
v -54 -41 0
v -53 -41 0
v -54 -42 0
v -55 -42 0
v -55 -41 0
v -54 -41 0
v -56 -42 0
v -57 -42 0
v -57 -41 0
v -56 -41 0
v -57 -42 0
v -58 -42 0
v -58 -41 0
v -57 -41 0
v -58 -42 0
v -59 -42 0
v -59 -41 0
v -58 -41 0
v -59 -42 0
v -60 -42 0
v -60 -41 0
v -59 -41 0
v -60 -42 0
v -61 -42 0
v -61 -41 0
v -60 -41 0
v -61 -42 0
v -62 -42 0
v -62 -41 0
v -61 -41 0
v -63 -42 0
v -64 -42 0
v -64 -41 0
v -63 -41 0
v -64 -42 0
v -65 -42 0
v -65 -41 0
v -64 -41 0
v -65 -42 0
v -66 -42 0
v -66 -41 0
v -65 -41 0
v -66 -42 0
v -67 -42 0
v -67 -41 0
v -66 -41 0
v -67 -42 0
v -68 -42 0
v -68 -41 0
v -67 -41 0
v -68 -42 0
v -69 -42 0
v -69 -41 0
v -68 -41 0
v -41 -43 0
v -42 -43 0
v -42 -42 0
v -41 -42 0
v -42 -43 0
v -43 -43 0
v -43 -42 0
v -42 -42 0
v -43 -43 0
v -44 -43 0
v -44 -42 0
v -43 -42 0
v -44 -43 0
v -45 -43 0
v -45 -42 0
v -44 -42 0
v -45 -43 0
v -46 -43 0
v -46 -42 0
v -45 -42 0
v -46 -43 0
v -47 -43 0
v -47 -42 0
v -46 -42 0
v -47 -43 0
v -48 -43 0
v -48 -42 0
v -47 -42 0
v -48 -43 0
v -49 -43 0
v -49 -42 0
v -48 -42 0
v -49 -43 0
v -50 -43 0
v -50 -42 0
v -49 -42 0
v -50 -43 0
v -51 -43 0
v -51 -42 0
v -50 -42 0
v -51 -43 0
v -52 -43 0
v -52 -42 0
v -51 -42 0
v -52 -43 0
v -53 -43 0
v -53 -42 0
v -52 -42 0
v -53 -43 0
v -54 -43 0
v -54 -42 0
v -53 -42 0
v -54 -43 0
v -55 -43 0
v -55 -42 0
v -54 -42 0
v -56 -43 0
v -57 -43 0
v -57 -42 0
v -56 -42 0
v -57 -43 0
v -58 -43 0
v -58 -42 0
v -57 -42 0
v -63 -43 0
v -64 -43 0
v -64 -42 0
v -63 -42 0
v -64 -43 0
v -65 -43 0
v -65 -42 0
v -64 -42 0
v -65 -43 0
v -66 -43 0
v -66 -42 0
v -65 -42 0
v -66 -43 0
v -67 -43 0
v -67 -42 0
v -66 -42 0
v -44 -44 0
v -45 -44 0
v -45 -43 0
v -44 -43 0
v -45 -44 0
v -46 -44 0
v -46 -43 0
v -45 -43 0
v -46 -44 0
v -47 -44 0
v -47 -43 0
v -46 -43 0
v -48 -44 0
v -49 -44 0
v -49 -43 0
v -48 -43 0
v -49 -44 0
v -50 -44 0
v -50 -43 0
v -49 -43 0
v -50 -44 0
v -51 -44 0
v -51 -43 0
v -50 -43 0
v -51 -44 0
v -52 -44 0
v -52 -43 0
v -51 -43 0
v -52 -44 0
v -53 -44 0
v -53 -43 0
v -52 -43 0
v -53 -44 0
v -54 -44 0
v -54 -43 0
v -53 -43 0
v -54 -44 0
v -55 -44 0
v -55 -43 0
v -54 -43 0
v -56 -44 0
v -57 -44 0
v -57 -43 0
v -56 -43 0
v -57 -44 0
v -58 -44 0
v -58 -43 0
v -57 -43 0
v -63 -44 0
v -64 -44 0
v -64 -43 0
v -63 -43 0
v -64 -44 0
v -65 -44 0
v -65 -43 0
v -64 -43 0
v -65 -44 0
v -66 -44 0
v -66 -43 0
v -65 -43 0
v -66 -44 0
v -67 -44 0
v -67 -43 0
v -66 -43 0
v -49 -45 0
v -50 -45 0
v -50 -44 0
v -49 -44 0
v -50 -45 0
v -51 -45 0
v -51 -44 0
v -50 -44 0
v -51 -45 0
v -52 -45 0
v -52 -44 0
v -51 -44 0
v -52 -45 0
v -53 -45 0
v -53 -44 0
v -52 -44 0
v -53 -45 0
v -54 -45 0
v -54 -44 0
v -53 -44 0
v -54 -45 0
v -55 -45 0
v -55 -44 0
v -54 -44 0
v -56 -45 0
v -57 -45 0
v -57 -44 0
v -56 -44 0
v -57 -45 0
v -58 -45 0
v -58 -44 0
v -57 -44 0
v -58 -45 0
v -59 -45 0
v -59 -44 0
v -58 -44 0
v -59 -45 0
v -60 -45 0
v -60 -44 0
v -59 -44 0
v -60 -45 0
v -61 -45 0
v -61 -44 0
v -60 -44 0
v -61 -45 0
v -62 -45 0
v -62 -44 0
v -61 -44 0
v -63 -45 0
v -64 -45 0
v -64 -44 0
v -63 -44 0
v -64 -45 0
v -65 -45 0
v -65 -44 0
v -64 -44 0
v -65 -45 0
v -66 -45 0
v -66 -44 0
v -65 -44 0
v -66 -45 0
v -67 -45 0
v -67 -44 0
v -66 -44 0
v -67 -45 0
v -68 -45 0
v -68 -44 0
v -67 -44 0
v -68 -45 0
v -69 -45 0
v -69 -44 0
v -68 -44 0
v -49 -46 0
v -50 -46 0
v -50 -45 0
v -49 -45 0
v -50 -46 0
v -51 -46 0
v -51 -45 0
v -50 -45 0
v -51 -46 0
v -52 -46 0
v -52 -45 0
v -51 -45 0
v -52 -46 0
v -53 -46 0
v -53 -45 0
v -52 -45 0
v -53 -46 0
v -54 -46 0
v -54 -45 0
v -53 -45 0
v -54 -46 0
v -55 -46 0
v -55 -45 0
v -54 -45 0
v -56 -46 0
v -57 -46 0
v -57 -45 0
v -56 -45 0
v -57 -46 0
v -58 -46 0
v -58 -45 0
v -57 -45 0
v -58 -46 0
v -59 -46 0
v -59 -45 0
v -58 -45 0
v -59 -46 0
v -60 -46 0
v -60 -45 0
v -59 -45 0
v -60 -46 0
v -61 -46 0
v -61 -45 0
v -60 -45 0
v -61 -46 0
v -62 -46 0
v -62 -45 0
v -61 -45 0
v -63 -46 0
v -64 -46 0
v -64 -45 0
v -63 -45 0
v -64 -46 0
v -65 -46 0
v -65 -45 0
v -64 -45 0
v -65 -46 0
v -66 -46 0
v -66 -45 0
v -65 -45 0
v -66 -46 0
v -67 -46 0
v -67 -45 0
v -66 -45 0
v -67 -46 0
v -68 -46 0
v -68 -45 0
v -67 -45 0
v -68 -46 0
v -69 -46 0
v -69 -45 0
v -68 -45 0

# Texture cooridinates (Count = 27)
vt 0.1 0.3
vt 0.2 0.3
vt 0.2 0.4
vt 0.1 0.4
vt 0.2 0
vt 0.3 0
vt 0.3 0.1
vt 0.2 0.1
vt 0.3 0.4
vt 0.4 0.4
vt 0.4 0.5
vt 0.3 0.5
vt 0.1 0.1
vt 0.2 0.2
vt 0.1 0.2
vt 0.3 0.7
vt 0.4 0.7
vt 0.4 0.8
vt 0.3 0.8
vt 0.5 0.7
vt 0.5 0.8
vt 0.1 0
vt 0.4 0
vt 0.4 0.1
vt 0.4 0.6
vt 0.5 0.6
vt 0.3 0.6

# Normal
vn 0 0 -1

# Mesh description
g PixelGameTestMap_mesh_0006

# Faces
f 1/1/1 2/2/1 3/3/1 4/4/1
f 5/1/1 6/2/1 7/3/1 8/4/1
f 9/1/1 10/2/1 11/3/1 12/4/1
f 13/5/1 14/6/1 15/7/1 16/8/1
f 17/5/1 18/6/1 19/7/1 20/8/1
f 21/5/1 22/6/1 23/7/1 24/8/1
f 25/5/1 26/6/1 27/7/1 28/8/1
f 29/1/1 30/2/1 31/3/1 32/4/1
f 33/5/1 34/6/1 35/7/1 36/8/1
f 37/5/1 38/6/1 39/7/1 40/8/1
f 41/5/1 42/6/1 43/7/1 44/8/1
f 45/5/1 46/6/1 47/7/1 48/8/1
f 49/5/1 50/6/1 51/7/1 52/8/1
f 53/5/1 54/6/1 55/7/1 56/8/1
f 57/1/1 58/2/1 59/3/1 60/4/1
f 61/5/1 62/6/1 63/7/1 64/8/1
f 65/5/1 66/6/1 67/7/1 68/8/1
f 69/5/1 70/6/1 71/7/1 72/8/1
f 73/5/1 74/6/1 75/7/1 76/8/1
f 77/5/1 78/6/1 79/7/1 80/8/1
f 81/1/1 82/2/1 83/3/1 84/4/1
f 85/5/1 86/6/1 87/7/1 88/8/1
f 89/5/1 90/6/1 91/7/1 92/8/1
f 93/5/1 94/6/1 95/7/1 96/8/1
f 97/5/1 98/6/1 99/7/1 100/8/1
f 101/5/1 102/6/1 103/7/1 104/8/1
f 105/1/1 106/2/1 107/3/1 108/4/1
f 109/5/1 110/6/1 111/7/1 112/8/1
f 113/5/1 114/6/1 115/7/1 116/8/1
f 117/5/1 118/6/1 119/7/1 120/8/1
f 121/5/1 122/6/1 123/7/1 124/8/1
f 125/5/1 126/6/1 127/7/1 128/8/1
f 129/5/1 130/6/1 131/7/1 132/8/1
f 133/1/1 134/2/1 135/3/1 136/4/1
f 137/9/1 138/10/1 139/11/1 140/12/1
f 141/13/1 142/8/1 143/14/1 144/15/1
f 145/13/1 146/8/1 147/14/1 148/15/1
f 149/13/1 150/8/1 151/14/1 152/15/1
f 153/13/1 154/8/1 155/14/1 156/15/1
f 157/13/1 158/8/1 159/14/1 160/15/1
f 161/13/1 162/8/1 163/14/1 164/15/1
f 165/13/1 166/8/1 167/14/1 168/15/1
f 169/13/1 170/8/1 171/14/1 172/15/1
f 173/13/1 174/8/1 175/14/1 176/15/1
f 177/15/1 178/14/1 179/2/1 180/1/1
f 181/16/1 182/17/1 183/18/1 184/19/1
f 185/17/1 186/20/1 187/21/1 188/18/1
f 189/5/1 190/6/1 191/7/1 192/8/1
f 193/5/1 194/6/1 195/7/1 196/8/1
f 197/5/1 198/6/1 199/7/1 200/8/1
f 201/5/1 202/6/1 203/7/1 204/8/1
f 205/22/1 206/5/1 207/8/1 208/13/1
f 209/22/1 210/5/1 211/8/1 212/13/1
f 213/5/1 214/6/1 215/7/1 216/8/1
f 217/22/1 218/5/1 219/8/1 220/13/1
f 221/5/1 222/6/1 223/7/1 224/8/1
f 225/6/1 226/23/1 227/24/1 228/7/1
f 229/6/1 230/23/1 231/24/1 232/7/1
f 233/6/1 234/23/1 235/24/1 236/7/1
f 237/16/1 238/17/1 239/18/1 240/19/1
f 241/17/1 242/20/1 243/21/1 244/18/1
f 245/25/1 246/26/1 247/20/1 248/17/1
f 249/5/1 250/6/1 251/7/1 252/8/1
f 253/5/1 254/6/1 255/7/1 256/8/1
f 257/5/1 258/6/1 259/7/1 260/8/1
f 261/5/1 262/6/1 263/7/1 264/8/1
f 265/22/1 266/5/1 267/8/1 268/13/1
f 269/22/1 270/5/1 271/8/1 272/13/1
f 273/22/1 274/5/1 275/8/1 276/13/1
f 277/22/1 278/5/1 279/8/1 280/13/1
f 281/22/1 282/5/1 283/8/1 284/13/1
f 285/22/1 286/5/1 287/8/1 288/13/1
f 289/5/1 290/6/1 291/7/1 292/8/1
f 293/6/1 294/23/1 295/24/1 296/7/1
f 297/27/1 298/25/1 299/17/1 300/16/1
f 301/25/1 302/26/1 303/20/1 304/17/1
f 305/5/1 306/6/1 307/7/1 308/8/1
f 309/5/1 310/6/1 311/7/1 312/8/1
f 313/5/1 314/6/1 315/7/1 316/8/1
f 317/5/1 318/6/1 319/7/1 320/8/1
f 321/5/1 322/6/1 323/7/1 324/8/1
f 325/16/1 326/17/1 327/18/1 328/19/1
f 329/17/1 330/20/1 331/21/1 332/18/1
f 333/16/1 334/17/1 335/18/1 336/19/1
f 337/17/1 338/20/1 339/21/1 340/18/1
f 341/16/1 342/17/1 343/18/1 344/19/1
f 345/17/1 346/20/1 347/21/1 348/18/1
f 349/16/1 350/17/1 351/18/1 352/19/1
f 353/17/1 354/20/1 355/21/1 356/18/1
f 357/16/1 358/17/1 359/18/1 360/19/1
f 361/17/1 362/20/1 363/21/1 364/18/1
f 365/16/1 366/17/1 367/18/1 368/19/1
f 369/17/1 370/20/1 371/21/1 372/18/1
f 373/16/1 374/17/1 375/18/1 376/19/1
f 377/17/1 378/20/1 379/21/1 380/18/1
f 381/16/1 382/17/1 383/18/1 384/19/1
f 385/17/1 386/20/1 387/21/1 388/18/1
f 389/16/1 390/17/1 391/18/1 392/19/1
f 393/17/1 394/20/1 395/21/1 396/18/1
f 397/5/1 398/6/1 399/7/1 400/8/1
f 401/5/1 402/6/1 403/7/1 404/8/1
f 405/5/1 406/6/1 407/7/1 408/8/1
f 409/27/1 410/25/1 411/17/1 412/16/1
f 413/25/1 414/26/1 415/20/1 416/17/1
f 417/27/1 418/25/1 419/17/1 420/16/1
f 421/25/1 422/26/1 423/20/1 424/17/1
f 425/27/1 426/25/1 427/17/1 428/16/1
f 429/25/1 430/26/1 431/20/1 432/17/1
f 433/27/1 434/25/1 435/17/1 436/16/1
f 437/25/1 438/26/1 439/20/1 440/17/1
f 441/27/1 442/25/1 443/17/1 444/16/1
f 445/25/1 446/26/1 447/20/1 448/17/1
f 449/27/1 450/25/1 451/17/1 452/16/1
f 453/25/1 454/26/1 455/20/1 456/17/1
f 457/27/1 458/25/1 459/17/1 460/16/1
f 461/25/1 462/26/1 463/20/1 464/17/1
f 465/27/1 466/25/1 467/17/1 468/16/1
f 469/25/1 470/26/1 471/20/1 472/17/1
f 473/27/1 474/25/1 475/17/1 476/16/1
f 477/25/1 478/26/1 479/20/1 480/17/1
f 481/5/1 482/6/1 483/7/1 484/8/1
f 485/5/1 486/6/1 487/7/1 488/8/1
f 489/5/1 490/6/1 491/7/1 492/8/1
f 493/5/1 494/6/1 495/7/1 496/8/1
f 497/5/1 498/6/1 499/7/1 500/8/1
f 501/5/1 502/6/1 503/7/1 504/8/1
f 505/5/1 506/6/1 507/7/1 508/8/1
f 509/5/1 510/6/1 511/7/1 512/8/1
f 513/16/1 514/17/1 515/18/1 516/19/1
f 517/17/1 518/20/1 519/21/1 520/18/1
f 521/6/1 522/23/1 523/24/1 524/7/1
f 525/6/1 526/23/1 527/24/1 528/7/1
f 529/16/1 530/17/1 531/18/1 532/19/1
f 533/17/1 534/20/1 535/21/1 536/18/1
f 537/16/1 538/17/1 539/18/1 540/19/1
f 541/17/1 542/20/1 543/21/1 544/18/1
f 545/16/1 546/17/1 547/18/1 548/19/1
f 549/17/1 550/20/1 551/21/1 552/18/1
f 553/16/1 554/17/1 555/18/1 556/19/1
f 557/17/1 558/20/1 559/21/1 560/18/1
f 561/5/1 562/6/1 563/7/1 564/8/1
f 565/5/1 566/6/1 567/7/1 568/8/1
f 569/5/1 570/6/1 571/7/1 572/8/1
f 573/5/1 574/6/1 575/7/1 576/8/1
f 577/27/1 578/25/1 579/17/1 580/16/1
f 581/25/1 582/26/1 583/20/1 584/17/1
f 585/6/1 586/23/1 587/24/1 588/7/1
f 589/6/1 590/23/1 591/24/1 592/7/1
f 593/27/1 594/25/1 595/17/1 596/16/1
f 597/25/1 598/26/1 599/20/1 600/17/1
f 601/27/1 602/25/1 603/17/1 604/16/1
f 605/25/1 606/26/1 607/20/1 608/17/1
f 609/27/1 610/25/1 611/17/1 612/16/1
f 613/25/1 614/26/1 615/20/1 616/17/1
f 617/27/1 618/25/1 619/17/1 620/16/1
f 621/25/1 622/26/1 623/20/1 624/17/1
f 625/16/1 626/17/1 627/18/1 628/19/1
f 629/17/1 630/20/1 631/21/1 632/18/1
f 633/16/1 634/17/1 635/18/1 636/19/1
f 637/17/1 638/20/1 639/21/1 640/18/1
f 641/16/1 642/17/1 643/18/1 644/19/1
f 645/17/1 646/20/1 647/21/1 648/18/1
f 649/16/1 650/17/1 651/18/1 652/19/1
f 653/17/1 654/20/1 655/21/1 656/18/1
f 657/16/1 658/17/1 659/18/1 660/19/1
f 661/17/1 662/20/1 663/21/1 664/18/1
f 665/16/1 666/17/1 667/18/1 668/19/1
f 669/17/1 670/20/1 671/21/1 672/18/1
f 673/16/1 674/17/1 675/18/1 676/19/1
f 677/17/1 678/20/1 679/21/1 680/18/1
f 681/16/1 682/17/1 683/18/1 684/19/1
f 685/17/1 686/20/1 687/21/1 688/18/1
f 689/16/1 690/17/1 691/18/1 692/19/1
f 693/17/1 694/20/1 695/21/1 696/18/1
f 697/27/1 698/25/1 699/17/1 700/16/1
f 701/25/1 702/26/1 703/20/1 704/17/1
f 705/27/1 706/25/1 707/17/1 708/16/1
f 709/25/1 710/26/1 711/20/1 712/17/1
f 713/27/1 714/25/1 715/17/1 716/16/1
f 717/25/1 718/26/1 719/20/1 720/17/1
f 721/27/1 722/25/1 723/17/1 724/16/1
f 725/25/1 726/26/1 727/20/1 728/17/1
f 729/27/1 730/25/1 731/17/1 732/16/1
f 733/25/1 734/26/1 735/20/1 736/17/1
f 737/27/1 738/25/1 739/17/1 740/16/1
f 741/25/1 742/26/1 743/20/1 744/17/1
f 745/27/1 746/25/1 747/17/1 748/16/1
f 749/25/1 750/26/1 751/20/1 752/17/1
f 753/27/1 754/25/1 755/17/1 756/16/1
f 757/25/1 758/26/1 759/20/1 760/17/1
f 761/27/1 762/25/1 763/17/1 764/16/1
f 765/25/1 766/26/1 767/20/1 768/17/1

