# Tiled2Unity generated file. Do not modify by hand.
# Wavefront file for 'PixelGameTestMap_mesh_0026.obj'

# Vertices (Count = 100)
v -22 -23 0
v -23 -23 0
v -23 -22 0
v -22 -22 0
v -22 -24 0
v -23 -24 0
v -23 -23 0
v -22 -23 0
v -22 -25 0
v -23 -25 0
v -23 -24 0
v -22 -24 0
v -22 -26 0
v -23 -26 0
v -23 -25 0
v -22 -25 0
v -22 -27 0
v -23 -27 0
v -23 -26 0
v -22 -26 0
v -22 -28 0
v -23 -28 0
v -23 -27 0
v -22 -27 0
v -21 -29 0
v -22 -29 0
v -22 -28 0
v -21 -28 0
v -22 -29 0
v -23 -29 0
v -23 -28 0
v -22 -28 0
v -21 -30 0
v -22 -30 0
v -22 -29 0
v -21 -29 0
v -22 -30 0
v -23 -30 0
v -23 -29 0
v -22 -29 0
v -21 -31 0
v -22 -31 0
v -22 -30 0
v -21 -30 0
v -22 -31 0
v -23 -31 0
v -23 -30 0
v -22 -30 0
v -21 -32 0
v -22 -32 0
v -22 -31 0
v -21 -31 0
v -22 -32 0
v -23 -32 0
v -23 -31 0
v -22 -31 0
v -21 -33 0
v -22 -33 0
v -22 -32 0
v -21 -32 0
v -22 -33 0
v -23 -33 0
v -23 -32 0
v -22 -32 0
v -21 -34 0
v -22 -34 0
v -22 -33 0
v -21 -33 0
v -21 -35 0
v -22 -35 0
v -22 -34 0
v -21 -34 0
v -32 -35 0
v -33 -35 0
v -33 -34 0
v -32 -34 0
v -21 -36 0
v -22 -36 0
v -22 -35 0
v -21 -35 0
v -32 -36 0
v -33 -36 0
v -33 -35 0
v -32 -35 0
v -21 -37 0
v -22 -37 0
v -22 -36 0
v -21 -36 0
v -25 -37 0
v -26 -37 0
v -26 -36 0
v -25 -36 0
v -21 -38 0
v -22 -38 0
v -22 -37 0
v -21 -37 0
v -21 -39 0
v -22 -39 0
v -22 -38 0
v -21 -38 0

# Texture cooridinates (Count = 8)
vt 0.1 0.3
vt 0.2 0.3
vt 0.2 0.4
vt 0.1 0.4
vt 0.2 0.1
vt 0.3 0.1
vt 0.3 0.2
vt 0.2 0.2

# Normal
vn 0 0 -1

# Mesh description
g PixelGameTestMap_mesh_0026

# Faces
f 1/1/1 2/2/1 3/3/1 4/4/1
f 5/1/1 6/2/1 7/3/1 8/4/1
f 9/1/1 10/2/1 11/3/1 12/4/1
f 13/1/1 14/2/1 15/3/1 16/4/1
f 17/1/1 18/2/1 19/3/1 20/4/1
f 21/1/1 22/2/1 23/3/1 24/4/1
f 25/1/1 26/2/1 27/3/1 28/4/1
f 29/1/1 30/2/1 31/3/1 32/4/1
f 33/1/1 34/2/1 35/3/1 36/4/1
f 37/1/1 38/2/1 39/3/1 40/4/1
f 41/1/1 42/2/1 43/3/1 44/4/1
f 45/1/1 46/2/1 47/3/1 48/4/1
f 49/1/1 50/2/1 51/3/1 52/4/1
f 53/1/1 54/2/1 55/3/1 56/4/1
f 57/1/1 58/2/1 59/3/1 60/4/1
f 61/1/1 62/2/1 63/3/1 64/4/1
f 65/1/1 66/2/1 67/3/1 68/4/1
f 69/1/1 70/2/1 71/3/1 72/4/1
f 73/5/1 74/6/1 75/7/1 76/8/1
f 77/1/1 78/2/1 79/3/1 80/4/1
f 81/5/1 82/6/1 83/7/1 84/8/1
f 85/1/1 86/2/1 87/3/1 88/4/1
f 89/5/1 90/6/1 91/7/1 92/8/1
f 93/1/1 94/2/1 95/3/1 96/4/1
f 97/1/1 98/2/1 99/3/1 100/4/1

